
<svg id="Layer_1" xmlns="http://www.w3.org/2000/svg" viewBox="0 0 224 72"><style>.st0{fill:#328caf}.st1{fill:#323230}</style><path class="st0" d="M17.1 18H69V3.1H3V69h14.1V18"/><path class="st0" d="M20 69h13V33.7h36.1v-13H20V69"/><path class="st0" d="M69.1 36.5h-33v32.6h14.4V50.8h18.6V36.5"/><path class="st0" d="M69.1 69.1V53.5H52.9v15.6h16.2"/><path class="st1" d="M141.1 3h-13.8v12.1h13.8V3M160 3h-13.9v12.1H160V3M107.9 50.5c0 5.9-1.3 9-5.8 9-2.7 0-4.5-2-4.5-5.2 0-4.6 3.4-7.4 10.3-9.3v5.5zm14.6 4.5V35.8c0-7.3-.2-11.6-5.3-15-2.9-1.9-7.4-3.1-13.3-3.1-12.8 0-19 5.4-19 16.7h13.9V34c0-4.2 1.6-6.3 5-6.3 2.8 0 4.3 1.6 4.3 4.5 0 4.5-4.4 4.9-12.1 8-8.6 3.4-12.4 7.9-12.4 15.6 0 8.6 4.9 14 12.7 14 4.9 0 9-1.9 12.5-5.6l.8 4.6h14.6c-1.4-2.9-1.7-7.5-1.7-13.8M141.1 19.1h-13.8V69h13.8V19.1M160 19.1h-13.9V69H160V19.1M178.2 37.8c0-5.6 1.9-8.6 4.8-8.6 3.3 0 3.4 2.8 3.4 8.1V69h13.1V37.8c0-5.6 1.9-8.6 4.8-8.6 3.3 0 3.4 2.9 3.4 8.1V69H221V34.2c0-10.8-3-16.1-10.7-16.1-4.9 0-8.6 2.2-11.6 6.9-1.8-4.5-5.2-6.9-9.7-6.9-4.9 0-8.5 2.1-11.5 6.9v-5.9H165V69h13.1V37.8"/></svg>