<svg xmlns="http://www.w3.org/2000/svg" xmlns:xlink="http://www.w3.org/1999/xlink" width="271" height="110" xmlns:v="https://vecta.io/nano">
  <defs>
    <path id="A" d="M0 85.2h271V.2H0z"/>
    <path id="B" d="M22.83 100.85h2.694c.71 0 .874-.34.874-.77 0-.843-.696-1.598-1.613-1.598-.83 0-1.79.65-1.954 2.368m4.797-.206c0 .34-.046.636-.105.828h-4.72c.03 1.822.977 2.783 2.397 2.783.947 0 1.525-.415 2.058-1.036l.356.282c-.55 1.05-1.496 1.717-2.843 1.717-1.998 0-3.3-1.377-3.3-3.642s1.555-3.774 3.404-3.774c1.54 0 2.754 1.052 2.754 2.843"/>
    <path id="C" d="M77.722 104.654l-.06-1.628h.814l.282 1.29c.356.163.74.236 1.2.236 1.126 0 1.657-.458 1.657-1.125 0-.638-.443-.962-1.376-1.288l-.682-.253c-1.08-.4-1.79-.992-1.79-1.998 0-1.08.918-2.087 2.575-2.087.802 0 1.437.22 2.073.607l-.06 1.508h-.77l-.237-1.183c-.324-.163-.665-.253-1.02-.253-.904 0-1.376.4-1.376 1.007 0 .65.355.903 1.36 1.272l.46.163c1.48.548 2.042 1.243 2.042 2.176 0 1.125-.977 2.117-2.886 2.117-.83 0-1.482-.192-2.207-.563"/>
    <path id="D" d="M84.67 95.225c0-.577.43-.948.992-.948.546 0 .99.37.99.948 0 .548-.444.948-.99.948-.563 0-.992-.4-.992-.948h0zm-.756 9.8v-.533l1.11-.208.03-2.368v-.696l-.044-1.866-1.183-.134v-.517l2.278-.903.222.148-.044 2.013v1.954l.03 2.368 1.036.208v.533h-3.435z"/>
    <path id="E" d="M110.304 101.547c0-1.998-.726-3.065-1.998-3.065-1.29 0-1.984 1.067-1.984 3.065 0 1.983.696 3.004 1.984 3.004 1.272 0 1.998-1.02 1.998-3.004m-5.39 0c0-2.458 1.674-3.745 3.39-3.745 1.702 0 3.404 1.288 3.404 3.745 0 2.443-1.688 3.67-3.404 3.67-1.732 0-3.39-1.228-3.39-3.67"/>
  </defs>
  <g fill="none" fill-rule="evenodd">
    <g transform="translate(0 .111)">
      <mask id="F" fill="#fff">
        <use xlink:href="#A"/>
      </mask>
      <path d="M15.7 66.1c0 4.012 1.57 6.017 4.798 6.017s4.796-2.005 4.796-6.017V54.14h11.34V66.1c0 4.448-1.57 8.1-4.7 11.164S24.957 81.8 20.51 81.8c-4.536 0-8.374-1.482-11.513-4.45C5.93 74.287 4.36 70.537 4.36 66.1V16.55c0-4.448 1.57-8.2 4.623-11.164C12.123 2.332 15.96.85 20.497.85c4.448 0 8.284 1.482 11.425 4.535s4.7 6.716 4.7 11.164V28.5h-11.34V16.55c0-4.013-1.57-6.018-4.796-6.018S15.7 12.536 15.7 16.55V66.1zM64.798 2.332h11.34V80.83h-11.34V48.122h-8.72V80.83h-11.34V2.332h11.34V37.22h8.72zM84.853 80.83h11.34V2.332h-11.34zm30.525-14.73c0 4.012 1.57 6.017 4.798 6.017s4.795-2.005 4.795-6.017V54.14h11.34V66.1c0 4.448-1.57 8.1-4.7 11.164s-6.977 4.535-11.425 4.535c-4.536 0-8.374-1.482-11.513-4.45-3.053-3.053-4.623-6.802-4.623-11.25V16.55c0-4.448 1.57-8.2 4.623-11.164C111.803 2.332 115.64.85 120.176.85c4.448 0 8.284 1.482 11.425 4.535s4.7 6.716 4.7 11.164V28.5h-11.34V16.55c0-4.013-1.57-6.018-4.795-6.018s-4.798 2.005-4.798 6.018V66.1zM154.7 54.052h7.502l-3.84-26-3.663 26zm8.895 9.77h-10.028L150.95 80.83h-10.902l13.703-78.5h9.245l13.694 78.497h-10.73l-2.356-17.007zM205.38 77.95c-2.007 2.53-4.972 3.838-8.8 3.838-9.855 0-16.397-5.93-16.397-15.7v-49.54c0-4.448 1.57-8.2 4.623-11.164C187.946 2.33 191.786.85 196.32.85c4.448 0 8.286 1.482 11.425 4.535s4.7 6.716 4.7 11.164v11.95h-11.34v-11.95c0-4.012-1.57-6.017-4.796-6.017s-4.798 2.005-4.798 6.017v49.54c0 4.013 1.657 6.018 5.06 6.018 3.228 0 4.798-2.005 4.798-6.018v-15.35h-4.798v-10.03h16.136v40.12h-5.93l-1.395-2.88zm35.23-61.402c0-4.012-1.57-6.017-4.797-6.017s-4.797 2.005-4.797 6.017v49.54c0 4.013 1.57 6.018 4.797 6.018s4.797-2.005 4.797-6.018v-49.54zm11.34 49.54c0 4.448-1.57 8.1-4.7 11.164s-6.977 4.535-11.426 4.535c-4.535 0-8.372-1.482-11.512-4.448-3.053-2.966-4.623-6.715-4.623-11.25V16.55c0-4.448 1.57-8.197 4.623-11.164 3.128-3.053 6.966-4.535 11.5-4.535 4.45 0 8.286 1.482 11.426 4.535s4.7 6.716 4.7 11.164v49.54z" mask="url(#F)" fill="#007396"/>
    </g>
    <g fill="#000">
      <path d="M7.322 99.7l-.03-3.85H5.027l-.324 1.895h-.86l.12-2.636h8.112l.12 2.636h-.858l-.326-1.895H8.743l-.03 3.85v.725l.03 3.82 1.5.163v.607h-4.47v-.607l1.5-.163.03-3.82V99.7zm12.558.83v1.376l.03 2.37 1.036.207v.533H17.5v-.533l1.08-.192.03-2.385v-1.257c0-1.362-.34-1.793-1.214-1.793-.724 0-1.333.282-2.088.962v2.088l.03 2.37 1.02.207v.533h-3.433v-.533l1.108-.207.03-2.37v-6.498l-1.213-.148v-.517l2.265-.667.207.117-.06 2.103v2.872c.724-.814 1.776-1.376 2.7-1.376 1.274 0 1.895.8 1.895 2.738"/>
      <use xlink:href="#B"/>
      <path d="M37.492 104.196c1.673 0 2.53-.962 2.53-3.582v-4.692l-1.5-.193v-.607h3.552v.607l-1.286.163v5.077c0 3.124-1.5 4.28-3.54 4.28-2.145 0-3.596-1.185-3.596-3.954v-1.598l-.03-3.818-1.228-.15v-.607h4.2v.607l-1.5.178-.03 3.8v1.17c0 2.532.947 3.33 2.456 3.33m12.22-3.657v1.376l.03 2.37 1.036.207v.533H47.37v-.533l1.094-.207.03-2.37v-1.257c0-1.362-.355-1.793-1.228-1.793-.682 0-1.26.266-2.013.9v2.16l.03 2.37 1.023.207v.533H42.87v-.533l1.096-.207.03-2.37v-.7l-.044-1.85-1.17-.134v-.517l2.073-.903.222.146.12 1.2c.724-.8 1.732-1.345 2.65-1.345 1.274 0 1.895.8 1.895 2.738m2.786-5.326c0-.577.43-.948.992-.948.546 0 1 .37 1 .948 0 .548-.444.948-1 .948-.563 0-.992-.4-.992-.948h0zm-.756 9.8v-.533l1.1-.208.03-2.368v-.696l-.044-1.866-1.183-.134v-.517l2.278-.903.222.148-.044 2.013v1.954l.03 2.368 1.036.208v.533H51.77zm7.388.09l-2.694-6.395-.8-.148v-.578h3.58v.578l-1.3.192 1.806 4.768 1.657-4.753-1.214-.207v-.578H63v.578l-.814.192-2.397 6.35z"/>
      <use xlink:href="#B" x="42.347"/>
      <path d="M71.323 104.493l1.065-.193.03-2.383v-.71l-.044-1.85-1.17-.132v-.517l2.073-.904.222.148.163 1.747c.49-1.184 1.332-1.895 2.132-1.895.444 0 .89.222 1.067.548 0 .696-.282 1.08-.875 1.08-.34 0-.62-.134-.903-.37l-.177-.163c-.593.446-.977 1.067-1.23 1.9v1.11l.03 2.354 1.213.222v.533h-3.598v-.533z"/>
      <use xlink:href="#C"/>
      <use xlink:href="#D"/>
      <path d="M91.243 104.448c.326 0 .622-.134.992-.4l.356.385c-.386.504-.992.785-1.747.785-1.036 0-1.688-.534-1.688-1.688l.015-1.26v-3.5h-1.23v-.653l1.318-.163.385-1.983h.887l-.073 2.012h1.983v.787h-2.01v4.588c0 .755.312 1.08.814 1.08m1.97 3.286c.104-.43.533-.65.992-.65.385 0 .696.15 1.096.563l.073.073c.622-.53 1.052-1.332 1.332-2.132l.06-.177-2.68-6.765-.814-.12v-.534h3.552v.55l-1.3.148 1.85 5.048 1.82-5.033-1.3-.178v-.534h2.887v.534l-.8.163-2.383 6.3c-.992 2.62-1.822 3.73-3.035 3.73-.74 0-1.362-.4-1.362-.977"/>
      <use xlink:href="#E"/>
      <path d="M113.816 98.78h-1.23v-.653l1.245-.163c.148-1.583.415-2.44 1.05-3.123.65-.696 1.408-.903 2.088-.903.696 0 1.272.22 1.42.8-.03.385-.353.667-.903.667-.368 0-.7-.15-1.065-.444l-.414-.326a2.08 2.08 0 0 0-.504.562c-.295.534-.504 1.377-.458 2.8h2.042v.785h-2.013v3.137l.03 2.354 1.33.224v.53h-3.818v-.53l1.17-.208.03-2.37v-3.14zm14.512 5.327l.297-1.717h.918l-.06 2.147c-.918.502-1.94.7-3 .7-3 0-5.02-2.132-5.02-5.182 0-3 2.132-5.165 5.004-5.165.814 0 1.866.134 2.857.7l.06 2.146h-.918l-.295-1.718c-.533-.295-1.036-.4-1.5-.4-1.984 0-3.582 1.54-3.582 4.426 0 2.902 1.45 4.442 3.48 4.442a4.07 4.07 0 0 0 1.76-.4m9.18-3.566v1.376l.03 2.37 1.036.207v.533h-3.433v-.533l1.08-.192.03-2.385v-1.257c0-1.362-.34-1.793-1.214-1.793-.725 0-1.333.282-2.088.962v2.088l.03 2.37 1.02.207v.533h-3.433v-.533l1.108-.207.03-2.37v-6.498l-1.213-.148v-.517l2.265-.667.207.117-.06 2.103v2.872c.725-.814 1.776-1.376 2.7-1.376 1.274 0 1.895.8 1.895 2.738"/>
      <use xlink:href="#D" x="55.63"/>
      <path d="M145.365 101.384c0 1.866.977 2.872 2.368 2.872a2.36 2.36 0 0 0 2.042-1.125l.37.192c-.415 1.228-1.362 1.895-2.753 1.895-2.03 0-3.33-1.406-3.33-3.686 0-2.34 1.644-3.73 3.42-3.73 1.332 0 2.427.83 2.62 1.925-.075.384-.312.562-.682.562-.504 0-.7-.297-.813-.7l-.268-.977c-.282-.088-.548-.12-.8-.12-1.26 0-2.176 1.007-2.176 2.902m10.1 2.086v-2.28l-1.362.444c-1.288.502-1.45 1.064-1.45 1.5 0 .784.502 1.096 1.184 1.096.504 0 .785-.178 1.628-.77m.03.562c-.813.8-1.303 1.185-2.176 1.185-1.08 0-1.983-.624-1.983-1.85 0-.845.46-1.5 2.458-2.236a15.15 15.15 0 0 1 1.673-.489v-.37c0-1.435-.415-1.8-1.392-1.8a3.42 3.42 0 0 0-.799.088l-.28.962c-.134.46-.37.7-.77.7a.63.63 0 0 1-.696-.606c.283-1.126 1.38-1.835 2.887-1.835 1.554 0 2.295.7 2.295 2.575v3.153c0 .636.207.874.533.874.253 0 .415-.134.577-.327l.297.327c-.355.577-.77.77-1.3.77a1.29 1.29 0 0 1-1.332-1.14m4.784-3.78c0 1.08.518 1.82 1.435 1.82.948 0 1.5-.784 1.5-1.88 0-1.052-.534-1.776-1.452-1.776-.933 0-1.495.755-1.495 1.835m4.07 6.144c0-.653-.415-1.155-1.48-1.155h-1.732a7.78 7.78 0 0 1-.606-.03c-.415.443-.578.843-.578 1.332 0 .962.74 1.347 1.9 1.347 1.613 0 2.488-.665 2.488-1.495m-2.6-8.586c.755 0 1.408.192 1.88.577l1.673-.577.222.148v.933h-1.45c.222.356.34.816.34 1.347 0 1.554-1.138 2.427-2.68 2.427a3.68 3.68 0 0 1-1.096-.16c-.25.324-.37.606-.37.947 0 .4.163.65.858.65h1.94c1.628 0 2.383.7 2.383 1.9 0 1.288-1.228 2.56-3.657 2.56-2.146 0-3.064-.74-3.064-1.8 0-.635.356-1.154 1.452-1.686-.65-.178-.977-.548-.977-1.126 0-.458.266-.962 1.006-1.642-.7-.385-1.14-1.08-1.14-2.088 0-1.554 1.14-2.427 2.68-2.427"/>
      <use xlink:href="#E" x="61.336"/>
      <path d="M180.614 100.422h.977c1.8 0 2.502-.962 2.502-2.354 0-1.435-.784-2.265-2.56-2.265h-.9l-.03 3.908v.7zm-1.406-.7l-.03-3.818-1.362-.163v-.6h3.98c2.502 0 3.76 1.214 3.76 2.946 0 1.66-1.14 3.05-4.173 3.05h-.77l.03 3.138 1.38.163v.607h-4.205v-.607l1.362-.163.03-3.818v-.726zm7.304 4.78l1.065-.193.03-2.383v-.7l-.044-1.85-1.17-.132v-.517l2.073-.904.222.148.163 1.747c.5-1.184 1.332-1.895 2.132-1.895.444 0 .9.222 1.065.548 0 .696-.28 1.08-.874 1.08-.34 0-.62-.134-.903-.37l-.177-.163c-.593.446-.977 1.067-1.23 1.9v1.1l.03 2.354 1.213.222v.533h-3.598v-.533z"/>
      <use xlink:href="#B" x="171.352"/>
      <use xlink:href="#C" x="122.742"/>
      <use xlink:href="#C" x="129.168"/>
    </g>
  </g>
</svg>
