<?xml version="1.0" encoding="UTF-8" standalone="no"?>
<svg
   id="Layer_2"
   width="550"
   height="305"
   data-name="Layer 2"
   version="1.1"
   sodipodi:docname="cie.svg"
   inkscape:version="1.2-dev (9ee32be, 2021-06-19)"
   xmlns:inkscape="http://www.inkscape.org/namespaces/inkscape"
   xmlns:sodipodi="http://sodipodi.sourceforge.net/DTD/sodipodi-0.dtd"
   xmlns="http://www.w3.org/2000/svg"
   xmlns:svg="http://www.w3.org/2000/svg">
  <sodipodi:namedview
     id="namedview943"
     pagecolor="#ffffff"
     bordercolor="#666666"
     borderopacity="1.0"
     inkscape:pageshadow="2"
     inkscape:pageopacity="0.0"
     inkscape:pagecheckerboard="0"
     showgrid="false"
     inkscape:zoom="0.72125"
     inkscape:cx="376.42981"
     inkscape:cy="-5.5459272"
     inkscape:window-width="1316"
     inkscape:window-height="868"
     inkscape:window-x="0"
     inkscape:window-y="38"
     inkscape:window-maximized="0"
     inkscape:current-layer="Layer_2" />
  <defs
     id="defs4">
    <style
       id="style2">.cls-1,.cls-3,.cls-6{stroke-width:0}.cls-3{fill:#00437e}.cls-6{fill:#0072cf}</style>
  </defs>
  <g
     id="g1258"
     transform="matrix(0.98344313,0,0,0.98282863,-8.3605835e-7,-0.65849512)">
    <path
       id="path226"
       d="m 277.20777,0.67 c -15.44916,0.0299016 -27.93807,12.52877 -27.96797,27.957996 0.0199,8.193038 3.55829,15.528898 9.15986,20.642071 L 297.41128,9.3613984 C 292.32801,4.0289464 285.17156,0.6899344 277.21773,0.67 Z M 162.44543,247.88646 c -12.63841,12.18989 -29.82187,19.70516 -48.77948,19.70516 -38.802311,0 -70.258794,-31.45649 -70.258794,-70.26876 0,-38.81228 31.456483,-70.26876 70.258794,-70.26876 19.07722,0 36.37031,7.60497 49.02866,19.95433 L 193.04473,115.9905 C 172.55217,95.986334 144.56427,83.64694 113.66595,83.64694 50.892523,83.666874 0,134.54943 0,197.33282 c 0,62.7834 50.892523,113.66595 113.66595,113.66595 30.99799,0 59.08556,-12.41913 79.58809,-32.53294 l -0.0797,0.0299 -30.72887,-30.5993 z"
       style="fill:#004ebc;stroke-width:0" />
    <path
       id="path228"
       d="m 434.34067,127.87141 83.66468,-18.12037 C 498.35003,93.464632 473.13302,83.656907 445.60361,83.666874 h -0.0199 c -44.90224,0 -83.69458,26.084166 -102.14387,63.899716 L 427.254,129.40636 c 2.31239,-0.62794 4.67461,-1.14623 7.07671,-1.53495 z m -5.50189,137.78657 -85.39897,-18.51906 c 18.45925,37.79562 57.26156,63.85985 102.1638,63.84988 h 0.19934 c 27.41977,-0.0399 52.51718,-9.80772 72.12266,-26.02435 L 432.3871,266.41549 c -1.19606,-0.22925 -2.37219,-0.47843 -3.54832,-0.76748 z M 174.37616,232.70642 v 0.0299 l 37.41687,21.8481 0.10964,-0.0897 a 112.87057,112.87057 0 0 0 12.86766,-33.13098 l -42.42041,-9.19972 a 69.959777,69.959777 0 0 1 -7.97376,20.55236 z m 50.36427,-59.52412 a 113.042,113.042 0 0 0 -12.13009,-31.77544 l -37.80559,21.29991 a 70.0744,70.0744 0 0 1 7.51527,19.64535 z m 75.89026,-81.362256 -46.83588,26.383176 v 48.68977 l 46.82591,-10.12667 V 91.820044 Z M 253.79481,227.66301 v 51.44072 l 46.83588,27.34003 v -68.62417 z"
       style="fill:#679bde;stroke-width:0" />
    <path
       id="path230"
       d="m 305.17573,28.64793 c -0.01,-7.495334 -2.98019,-14.27303 -7.77442,-19.2865316 L 258.38969,49.270067 c 4.96367,4.535076 11.55199,7.325892 18.80811,7.335859 15.43919,-0.0299 27.93806,-12.518803 27.96796,-27.957996 z M 162.69461,147.0184 c 4.74438,4.61481 8.83093,9.89743 12.12011,15.69834 l 37.80559,-21.29991 a 113.91214,113.91214 0 0 0 -19.57558,-25.40639 l -30.35012,31.01792 z m 11.68155,85.72788 v -0.0299 a 70.550832,70.550832 0 0 1 -11.93073,15.18005 l 30.72887,30.5993 0.0797,-0.0299 a 113.79552,113.79552 0 0 0 18.64863,-23.96115 l -0.10964,0.0897 z M 253.79481,91.810077 v 26.403113 l 46.83588,-26.383179 z m 0,214.653623 h 46.83588 l -46.83588,-27.35 z"
       class="cls-6"
       style="fill:#0072cf;stroke-width:0" />
    <path
       id="path232"
       d="m 253.79481,227.66301 46.82591,10.15658 v -81.05327 l -46.82591,10.12667 z m 303.87003,-49.2878 c -4.61481,-27.4696 -19.09716,-51.59023 -39.65949,-68.62417 l -83.66468,18.12037 a 71.066136,71.066136 0 0 1 11.26294,-0.90702 c 10.46556,0 20.40286,2.30242 29.33347,6.40891 3.37888,1.62465 30.58934,14.81126 36.57962,45.19129 v 0.0299 l 0.6379,4.28589 H 376.33157 l 2.28249,-7.07671 c 7.25612,-22.58567 25.63564,-40.19772 48.6499,-46.41725 l -83.81418,18.16024 c -4.68459,9.59841 -8.07343,19.94437 -9.89743,30.80861 -1.04656,6.18964 -1.60472,12.49887 -1.60472,18.94765 0,5.86072 0.44852,11.61179 1.29573,17.23329 1.74426,11.52208 5.25272,22.46607 10.19645,32.58278 l 85.3292,18.49912 c -24.37977,-6.02019 -43.78591,-24.74856 -50.74302,-48.75954 l -2.01337,-6.92721 h 182.55924 c 0.45849,-4.14635 0.68773,-8.36248 0.68773,-12.63841 0,-6.44877 -0.56813,-12.76798 -1.59475,-18.94764 z m -12.44903,73.58784 -48.62997,-6.15973 -0.0598,-0.14951 c -3.6181,3.80747 -7.63488,7.23619 -12.03042,10.15658 l 0.0997,0.0399 c -11.17323,7.46544 -24.58909,11.84104 -39.00166,11.84104 -4.50517,0 -8.90071,-0.44853 -13.17664,-1.25587 l 85.48868,18.53899 c 9.36917,-7.75448 17.49244,-16.97414 24.00102,-27.32009 1.19606,-1.87384 2.40209,-3.84734 3.47855,-5.67134 l -0.18938,-0.0199 z"
       style="fill:#a1bdea;stroke-width:0" />
  </g>
</svg>
