<?xml version="1.0" encoding="UTF-8" standalone="no"?>
<svg
   version="1.1"
   id="ISO-Logo"
   x="0px"
   y="0px"
   width="750"
   height="750"
   viewBox="0 0 750 750"
   enable-background="new 0 0 830 880"
   xml:space="preserve"
   sodipodi:docname="IEC-logo.svg"
   inkscape:version="1.2-dev (9ee32be, 2021-06-19)"
   xmlns:inkscape="http://www.inkscape.org/namespaces/inkscape"
   xmlns:sodipodi="http://sodipodi.sourceforge.net/DTD/sodipodi-0.dtd"
   xmlns="http://www.w3.org/2000/svg"
   xmlns:svg="http://www.w3.org/2000/svg"
   xmlns:rdf="http://www.w3.org/1999/02/22-rdf-syntax-ns#"
   xmlns:cc="http://creativecommons.org/ns#"
   xmlns:dc="http://purl.org/dc/elements/1.1/"><defs
   id="defs249" /><sodipodi:namedview
   id="namedview247"
   pagecolor="#ffffff"
   bordercolor="#666666"
   borderopacity="1.0"
   inkscape:pageshadow="2"
   inkscape:pageopacity="0.0"
   inkscape:pagecheckerboard="0"
   showgrid="false"
   fit-margin-top="0"
   fit-margin-left="0"
   fit-margin-right="0"
   fit-margin-bottom="0"
   inkscape:zoom="0.56140359"
   inkscape:cx="485.39055"
   inkscape:cy="309.93746"
   inkscape:window-width="1512"
   inkscape:window-height="868"
   inkscape:window-x="0"
   inkscape:window-y="38"
   inkscape:window-maximized="1"
   inkscape:current-layer="ISO-Logo" />
<title
   id="title231">ISO-Logo</title>



<metadata
   id="metadata251"><rdf:RDF><cc:Work
       rdf:about=""><dc:title>ISO-Logo</dc:title></cc:Work></rdf:RDF></metadata><g
   id="g861"
   transform="matrix(0.97205266,0,0,0.97179952,-792.72561,-58.366964)"><g
     id="g829"><g
       id="g798"><g
         id="g768"><g
           id="g739"><g
             id="g711"><g
               id="g684"><g
                 id="g658"><g
                   id="g633"><g
                     id="g609"><g
                       id="g586"><g
                         id="g564"><g
                           id="g543"><g
                             id="g523"><g
                               id="g504"><g
                                 id="g486"><g
                                   id="g469"><g
                                   id="g453"><g
                                   id="g438"><g
                                   id="surface1"
                                   transform="matrix(8.5751569,0,0,8.5751569,815.51715,60.060704)"><path
                                   style="fill:#0057a1;fill-opacity:1;fill-rule:nonzero;stroke:none"
                                   d="M 0,0 H 89.976562 V 90 H 0 Z m 0,0"
                                   id="path70" /><path
                                   style="fill:#ffffff;fill-opacity:1;fill-rule:nonzero;stroke:none"
                                   d="m 9.746094,19.472656 h 7.398437 V 55.933594 H 9.746094 Z m 0,0"
                                   id="path72" /><path
                                   style="fill:#ffffff;fill-opacity:1;fill-rule:nonzero;stroke:none"
                                   d="m 49.171875,18.613281 h -18 c -2.441406,0.234375 -4.324219,2.25 -4.390625,4.699219 v 26.714844 c 0.07031,3.019531 2.371094,5.519531 5.378906,5.839844 H 49.457031 V 52.792969 H 37.316406 c -2.195312,0 -3.203125,-1.054688 -3.203125,-2.371094 v -9.988281 c 0,-1.03125 -0.441406,-2.742188 0.855469,-2.742188 H 45.769531 V 34.945312 H 35.121094 c -1.382813,0 -1.117188,-1.007812 -1.117188,-1.863281 v -8.386719 c 0,-0.964843 0,-2.589843 1.796875,-2.589843 h 13.371094 z m 0,0"
                                   id="path74" /><path
                                   style="fill:#ffffff;fill-opacity:1;fill-rule:nonzero;stroke:none"
                                   d="M 80.933594,24.695312 C 78.035156,20.34375 73.125,17.761719 67.894531,17.847656 c -7.398437,0 -17.054687,6.933594 -17.054687,19.753906 -0.28125,4.878907 1.429687,9.664063 4.738281,13.257813 3.308594,3.597656 7.9375,5.695313 12.820313,5.820313 6.027343,-0.167969 11.402343,-3.839844 13.742187,-9.398438 L 80.40625,45.660156 c 0,0 -4.628906,8.316406 -11.566406,8.316406 -4.257813,0 -10.976563,-4.234374 -10.976563,-16.375 0,-13.476562 5.75,-16.902343 10.976563,-16.902343 4.128906,0.253906 7.902344,2.429687 10.183594,5.882812 z m 0,0"
                                   id="path76" /><path
                                   style="fill:#ffffff;fill-opacity:1;fill-rule:nonzero;stroke:none"
                                   d="M 69.671875,66.335938 H 9.746094 v -1.515626 h 61.902344 c 0,0 0,-0.152343 -1.03125,0.617188 -0.359376,0.246094 -0.679688,0.550781 -0.945313,0.898438 z m 0,0"
                                   id="path78" /><path
                                   style="fill:#ffffff;fill-opacity:1;fill-rule:nonzero;stroke:none"
                                   d="m 9.746094,69.035156 h 59.289062 v 1.539063 H 9.746094 Z m 0,0"
                                   id="path80" /><path
                                   style="fill:#ffffff;fill-opacity:1;fill-rule:nonzero;stroke:none"
                                   d="M 71.605469,75.027344 H 9.746094 v -1.511719 h 59.90625 L 70.375,74.195312 c 0.769531,0.789063 1.230469,0.832032 1.230469,0.832032 z m 0,0"
                                   id="path82" /><path
                                   style="fill:#ffffff;fill-opacity:1;fill-rule:nonzero;stroke:none"
                                   d="m 76.238281,75.25 c 2.171875,0.08984 4.183594,-1.152344 5.082031,-3.136719 C 82.214844,70.128906 81.8125,67.796875 80.304688,66.226562 78.800781,64.65625 76.488281,64.15625 74.46875,64.96875 72.449219,65.78125 71.125,67.738281 71.121094,69.914062 71.0625,72.800781 73.351562,75.1875 76.238281,75.25 Z m 0,0"
                                   id="path84" /><path
                                   style="fill:#0057a1;fill-opacity:1;fill-rule:nonzero;stroke:none"
                                   d="m 76.105469,77.289062 c 4.074219,0.01172 7.390625,-3.285156 7.398437,-7.359374 0.0078,-4.078126 -3.292968,-7.386719 -7.371094,-7.390626 -4.074218,-0.0039 -7.382812,3.300782 -7.382812,7.375 -0.0039,1.953126 0.765625,3.832032 2.148438,5.214844 1.378906,1.382813 3.253906,2.160156 5.207031,2.160156 z m 0,0"
                                   id="path86" /><path
                                   style="fill:#0059a1;fill-opacity:1;fill-rule:nonzero;stroke:none"
                                   d="m 76.105469,77.289062 c 4.074219,0.01172 7.390625,-3.285156 7.398437,-7.359374 0.0078,-4.078126 -3.292968,-7.386719 -7.371094,-7.390626 -4.074218,-0.0039 -7.382812,3.300782 -7.382812,7.375 -0.0039,1.953126 0.765625,3.832032 2.148438,5.214844 1.378906,1.382813 3.253906,2.160156 5.207031,2.160156 z m 0,0"
                                   id="path88" /><path
                                   style="fill:#ffffff;fill-opacity:1;fill-rule:nonzero;stroke:none"
                                   d="m 76.257812,75.25 c 2.175782,0.08984 4.1875,-1.152344 5.082032,-3.136719 0.894531,-1.984375 0.496094,-4.316406 -1.011719,-5.886719 -1.507813,-1.570312 -3.816406,-2.070312 -5.835937,-1.257812 -2.023438,0.8125 -3.347657,2.769531 -3.347657,4.945312 -0.0625,2.886719 2.226563,5.273438 5.113281,5.335938 z m 0,0"
                                   id="path90" /></g></g></g></g></g></g></g></g></g></g></g></g></g></g></g></g></g></g></g></g></svg>
