<svg xmlns="http://www.w3.org/2000/svg" width="132" height="21" class="w-32 h-auto" viewBox="0 0 345.914 53.979">
    
  
  <title>IOP Publishing</title>
  <path fill="#eb1b24" d="M0 42.227V.627h12.848v41.6Z" data-name="Path 26"></path><path fill="#eb1b24" d="M37.162 42.851c-12.538 0-19.835-9.356-19.835-21.392 0-12.226 7.235-21.46 19.96-21.46 12.538 0 19.647 8.985 19.647 21.021s-7.047 21.831-19.772 21.831Zm.125-33.431c-5.738 0-6.3 8.233-6.3 12.35s.437 11.6 6.113 11.6c5.988 0 6.05-7.608 6.05-11.852v-.436c0-4.118-.063-11.665-5.863-11.665Z" data-name="Path 27"></path><path fill="#eb1b24" d="M81.563 27.135h-7.237v15.092H61.415V.627h17.776c4.492 0 9.355.31 12.975 3.3a12.572 12.572 0 0 1 4.616 9.981c0 8.801-7.048 13.227-15.219 13.227Zm-2.745-16.966H74.14v8.044h4.3c2.932 0 5.613-.622 5.613-4.115.004-3.182-2.49-3.929-5.235-3.929Z" data-name="Path 28"></path><path fill="#1d1d1b" d="M131.53 24.351c-3.68 1.31-7.8.935-11.6.935v16.9h-5.053V.585h8.92c4.366 0 8.795.312 11.914 3.68a13.013 13.013 0 0 1 3.244 8.8c-.002 5.173-2.434 9.539-7.425 11.286Zm-5.052-19.587h-6.549v16.343h3.871c6.05 0 9.856-1.06 9.856-8.046 0-4.554-2.246-8.3-7.173-8.3Z" data-name="Path 29"></path><path fill="#1d1d1b" d="M160.6 42.19v-4.615c-1.809 3.555-3.8 5.488-8.046 5.488a7.889 7.889 0 0 1-5.988-2.308c-2.308-2.5-2.183-6.8-2.183-9.918v-19.4h4.554v20.524c0 3.618 0 7.3 4.678 7.3 3.243 0 5.052-2.37 5.926-5.24.873-2.807.748-5.613.748-8.545V11.439h4.554V42.19Z" data-name="Path 30"></path><path fill="#1d1d1b" d="M184.424 42.813c-4.18 0-5.926-1.246-7.8-4.927-.436 1.435-.748 2.869-1.186 4.3h-2.37V.585h4.554v14.908c1.934-2.994 4.117-4.678 7.8-4.678 8.607 0 10.729 8.857 10.729 15.843-.001 7.798-2.496 16.155-11.727 16.155Zm.125-28.193c-5.053 0-6.924 5.489-6.924 9.731v4.676c0 4.74 1 9.979 6.8 9.979 6.425 0 6.674-7.859 6.674-12.537 0-4.741-.186-11.852-6.549-11.852Z" data-name="Path 31"></path><path fill="#1d1d1b" d="M202.824 42.19V.585h4.554v41.6Z" data-name="Path 32"></path><path fill="#1d1d1b" d="M215.3 6.012V.648h4.99v5.364Zm.25 36.178V11.439h4.55V42.19Z" data-name="Path 33"></path><path fill="#1d1d1b" d="M236.258 43.063c-6.114 0-9.793-2.744-11.041-8.795l4.242-.936c.811 3.992 3.057 5.863 7.11 5.863 3.057 0 6.176-1.621 6.176-5.053 0-5.551-9.856-5.114-13.785-8.607a7.764 7.764 0 0 1-2.619-5.739c0-5.551 4.74-9.231 10.043-9.231a9.794 9.794 0 0 1 7.422 3.056 11.123 11.123 0 0 1 2.309 4.8l-3.992 1c-1-2.932-2.682-4.99-5.988-4.99-2.807 0-5.3 1.684-5.3 4.678 0 2.5 1.809 3.68 3.993 4.366 5.3 1.622 12.6 3.057 12.6 10.105-.006 6.24-5.494 9.483-11.17 9.483Z" data-name="Path 34"></path><path fill="#1d1d1b" d="M268.631 42.19V23.103c0-3.68.188-8.67-4.928-8.67-5.738 0-6.426 7.547-6.426 11.727v16.03h-4.553V.585h4.553v15.594c1.373-3.618 3.742-5.614 7.672-5.614a8.178 8.178 0 0 1 6.113 2.433c2.371 2.62 2.121 6.8 2.121 10.1V42.19Z" data-name="Path 35"></path><path fill="#1d1d1b" d="M281.168 6.012V.648h4.99v5.364Zm.248 36.178V11.439h4.555V42.19Z" data-name="Path 36"></path><path fill="#1d1d1b" d="M310.047 42.19V23.227c0-3.8.438-8.8-4.8-8.8-6.051 0-6.549 6.674-6.549 11.166V42.19h-4.555V11.439h4.242v4.8c1.621-3.743 3.742-5.676 7.922-5.676a8.3 8.3 0 0 1 6.424 2.682c2.059 2.5 1.871 6.3 1.871 9.356V42.19Z" data-name="Path 37"></path><path fill="#1d1d1b" d="M332.877 53.979c-5.3 0-12.289-1.5-12.289-8.109 0-3.057 1.248-5.052 4.117-6.112-1.871-1.247-2.869-2.433-2.869-4.741 0-2.807 1.435-4.553 3.93-5.676a10.292 10.292 0 0 1-3.492-8.109 10.347 10.347 0 0 1 10.291-10.667 9.281 9.281 0 0 1 5.115 1.372c.811-4.242 2.371-5.3 6.549-5.3h.688v3.93a8.471 8.471 0 0 0-1.248-.125c-2.371 0-2.994 1.809-3.244 3.867a11.079 11.079 0 0 1 2.371 6.924 10.1 10.1 0 0 1-10.355 10.48 19.24 19.24 0 0 1-3.8-.5c-1.5.5-2.557 1.061-2.557 2.807 0 2.745 2.682 2.87 4.8 2.994 1.123.063 2.184.063 3.307.125 5.738.313 11.727.5 11.727 7.859-.004 7.172-7.178 8.981-13.041 8.981Zm1.31-12.912c-2.121-.062-4.18-.062-6.3-.125a4.362 4.362 0 0 0-2.619 4.117c0 4.616 4.24 5.178 7.922 5.178 3.367 0 8.045-.687 8.045-4.99-.001-4.055-4.055-4.12-7.047-4.18Zm-1.747-26.634c-3.93 0-5.426 3.493-5.426 6.924s1.621 6.8 5.488 6.8c3.742 0 5.615-3.43 5.615-6.8 0-3.68-1.623-6.924-5.678-6.924Z" data-name="Path 38"></path>
</svg>