<?xml version="1.0" encoding="UTF-8" standalone="no"?>
<svg
   version="1.1"
   id="ISO-Logo"
   x="0px"
   y="0px"
   width="750"
   height="750"
   viewBox="0 0 750 750"
   enable-background="new 0 0 830 880"
   xml:space="preserve"
   sodipodi:docname="iso-logo-print.svg"
   inkscape:version="1.2-dev (9ee32be, 2021-06-19)"
   xmlns:inkscape="http://www.inkscape.org/namespaces/inkscape"
   xmlns:sodipodi="http://sodipodi.sourceforge.net/DTD/sodipodi-0.dtd"
   xmlns="http://www.w3.org/2000/svg"
   xmlns:svg="http://www.w3.org/2000/svg"
   xmlns:rdf="http://www.w3.org/1999/02/22-rdf-syntax-ns#"
   xmlns:cc="http://creativecommons.org/ns#"
   xmlns:dc="http://purl.org/dc/elements/1.1/"><defs
   id="defs249" /><sodipodi:namedview
   id="namedview247"
   pagecolor="#ffffff"
   bordercolor="#666666"
   borderopacity="1.0"
   inkscape:pageshadow="2"
   inkscape:pageopacity="0.0"
   inkscape:pagecheckerboard="0"
   showgrid="false"
   fit-margin-top="0"
   fit-margin-left="0"
   fit-margin-right="0"
   fit-margin-bottom="0"
   inkscape:zoom="0.79394457"
   inkscape:cx="137.91895"
   inkscape:cy="25.190675"
   inkscape:window-width="1512"
   inkscape:window-height="868"
   inkscape:window-x="0"
   inkscape:window-y="38"
   inkscape:window-maximized="1"
   inkscape:current-layer="ISO-Logo" />
<title
   id="title231">ISO-Logo</title>


<g
   id="g894"
   transform="matrix(1.0303416,0,0,0.97179939,-52.749347,-55.907491)"><g
     id="g882"><g
       id="g871"><rect
         id="BackgroundRed"
         fill="#e60010"
         width="727.91394"
         height="771.76422"
         x="51.195972"
         y="57.529869"
         style="stroke-width:0.877005" /><g
         id="ISOGlobe"
         transform="matrix(0.87700477,0,0,0.87700477,51.195972,57.529868)">
	<path
   fill="#ffffff"
   d="m 494.485,591.381 c -2.98,11.608 -6.23,22.526 -9.757,32.583 -23.02,-2.066 -46.787,-3.16 -70.797,-3.16 -23.008,0 -45.543,0.961 -67.324,2.797 -3.482,-9.96 -6.693,-20.748 -9.63,-32.22 h -17.812 c 2.902,11.826 6.145,23.189 9.73,33.912 -30.692,3.188 -61.086,8.785 -90.901,16.736 -17.306,-14.923 -32.691,-31.937 -45.804,-50.648 h -21 c 85.96,135.054 265.128,174.854 400.183,88.896 35.776,-22.772 66.121,-53.117 88.893,-88.896 h -20.989 c -13.335,19.032 -29.025,36.301 -46.698,51.392 -29.564,-8.013 -59.711,-13.699 -90.162,-17.012 3.646,-10.863 6.939,-22.378 9.888,-34.382 z m -239.442,64.181 c 26.327,-6.227 53.039,-10.692 79.958,-13.375 10.707,27.304 24.759,49.768 38.66,63.888 -42.939,-7.351 -83.562,-24.65 -118.618,-50.513 z m 160.692,53.916 c -22.02,0 -44.775,-25.892 -62.677,-68.93 19.896,-1.555 40.312,-2.382 60.875,-2.382 21.809,0 43.391,0.924 64.354,2.665 -17.879,42.86 -40.582,68.647 -62.552,68.647 z m 159.792,-53.257 c -34.857,25.493 -75.151,42.56 -117.719,49.854 13.842,-14.059 27.84,-36.396 38.522,-63.522 26.678,2.769 53.137,7.337 79.197,13.668 z"
   id="path234" />
	<path
   fill="#ffffff"
   d="m 639.271,280.039 h 20.994 C 574.3,144.983 395.129,105.188 260.077,191.154 c -35.773,22.77 -66.115,53.11 -88.885,88.885 h 20.994 c 13.34,-19.025 29.027,-36.292 46.691,-51.392 29.565,8.018 59.713,13.705 90.167,17.016 -3.649,10.871 -6.938,22.373 -9.884,34.375 h 17.814 c 2.981,-11.604 6.229,-22.524 9.76,-32.584 23.019,2.071 46.791,3.162 70.797,3.162 23.012,0 45.536,-0.961 67.326,-2.792 3.475,9.956 6.688,20.752 9.619,32.216 h 17.82 c -2.908,-11.827 -6.152,-23.188 -9.729,-33.909 30.687,-3.191 61.074,-8.788 90.888,-16.732 17.316,14.913 32.706,31.923 45.816,50.64 z M 335.134,228.88 c -26.674,-2.78 -53.132,-7.348 -79.195,-13.671 34.853,-25.501 75.147,-42.568 117.712,-49.861 -13.838,14.054 -27.845,36.405 -38.517,63.532 z m 82.399,4.375 c -21.805,0 -43.396,-0.92 -64.359,-2.659 17.88,-42.858 40.577,-68.651 62.557,-68.651 22.021,0 44.775,25.9 62.672,68.931 -19.89,1.558 -40.31,2.374 -60.87,2.379 z m 78.933,-4.026 c -10.714,-27.304 -24.762,-49.769 -38.665,-63.883 42.939,7.352 83.563,24.65 118.615,50.518 -26.323,6.227 -53.033,10.693 -79.95,13.365 z"
   id="path236" />
</g><g
         id="Lettering"
         transform="matrix(0.87700477,0,0,0.87700477,51.195972,57.529868)">
	<path
   fill="#ffffff"
   d="m 636.921,304.947 c -80.302,0 -137.694,46.683 -137.694,130.253 0,83.568 57.395,130.252 137.694,130.252 80.284,0 137.687,-46.684 137.687,-130.252 -0.003,-83.57 -57.403,-130.253 -137.687,-130.253 z m 0,201.325 c -31.828,0 -52.048,-20.217 -52.048,-71.072 0,-50.846 20.219,-71.063 52.048,-71.063 31.813,0 52.036,20.215 52.036,71.063 0,50.856 -20.226,71.072 -52.036,71.072 z"
   id="path239" />
	<path
   fill="#ffffff"
   d="m 478.651,384.943 v -75.541 h -60.665 c -18.628,-2.605 -37.396,-4.095 -56.201,-4.456 -69.891,0 -117.772,25.581 -117.772,82.084 0,111.225 160.296,62.735 160.296,104.369 0,12.797 -12.796,19.935 -44.313,19.935 -23.792,0 -44.605,-5.063 -53.523,-9.813 v -16.064 h -60.671 v 75.534 h 60.671 c 19.724,2.625 39.577,4.114 59.471,4.461 91.896,0 122.522,-37.464 122.522,-83.261 0,-110.624 -161.771,-59.782 -161.771,-104.083 0,-10.712 11.002,-19.034 39.248,-19.034 22.013,0 43.121,5.064 52.045,9.811 v 16.061 z"
   id="path241" />
	<polygon
   fill="#ffffff"
   points="106.311,372.365 106.311,499.057 65.579,499.057 65.579,561.506 227.647,561.506 227.647,499.057 186.906,499.057 186.906,372.365 227.647,372.365 227.647,309.916 65.579,309.916 65.579,372.365 "
   id="polygon243" />
</g></g></g></g>
<metadata
   id="metadata251"><rdf:RDF><cc:Work
       rdf:about=""><dc:title>ISO-Logo</dc:title></cc:Work></rdf:RDF></metadata></svg>
