<?xml version="1.0" encoding="UTF-8" standalone="no"?>
<!-- Created with Inkscape (http://www.inkscape.org/) -->

<svg
   width="1550"
   height="750"
   viewBox="0 0 410.10416 198.43749"
   version="1.1"
   id="svg5"
   inkscape:version="1.2-dev (9ee32be, 2021-06-19)"
   sodipodi:docname="ISO_and_CIE.svg"
   xmlns:inkscape="http://www.inkscape.org/namespaces/inkscape"
   xmlns:sodipodi="http://sodipodi.sourceforge.net/DTD/sodipodi-0.dtd"
   xmlns="http://www.w3.org/2000/svg"
   xmlns:svg="http://www.w3.org/2000/svg">
  <sodipodi:namedview
     id="namedview7"
     pagecolor="#ffffff"
     bordercolor="#666666"
     borderopacity="1.0"
     inkscape:pageshadow="2"
     inkscape:pageopacity="0.0"
     inkscape:pagecheckerboard="0"
     inkscape:document-units="mm"
     showgrid="false"
     units="px"
     width="1500px"
     inkscape:zoom="0.57549102"
     inkscape:cx="723.7298"
     inkscape:cy="415.29753"
     inkscape:window-width="1316"
     inkscape:window-height="868"
     inkscape:window-x="0"
     inkscape:window-y="38"
     inkscape:window-maximized="0"
     inkscape:current-layer="layer1" />
  <defs
     id="defs2">
    <style
       id="style2">.cls-1,.cls-3,.cls-6{stroke-width:0}.cls-3{fill:#00437e}.cls-6{fill:#0072cf}</style>
  </defs>
  <g
     inkscape:label="Layer 1"
     inkscape:groupmode="layer"
     id="layer1">
    <g
       id="g1258"
       transform="matrix(0.35482181,0,0,0.35460011,211.66667,43.95986)">
      <path
         id="path226"
         d="m 277.20777,0.67 c -15.44916,0.0299016 -27.93807,12.52877 -27.96797,27.957996 0.0199,8.193038 3.55829,15.528898 9.15986,20.642071 L 297.41128,9.3613984 C 292.32801,4.0289464 285.17156,0.6899344 277.21773,0.67 Z M 162.44543,247.88646 c -12.63841,12.18989 -29.82187,19.70516 -48.77948,19.70516 -38.802311,0 -70.258794,-31.45649 -70.258794,-70.26876 0,-38.81228 31.456483,-70.26876 70.258794,-70.26876 19.07722,0 36.37031,7.60497 49.02866,19.95433 L 193.04473,115.9905 C 172.55217,95.986334 144.56427,83.64694 113.66595,83.64694 50.892523,83.666874 0,134.54943 0,197.33282 c 0,62.7834 50.892523,113.66595 113.66595,113.66595 30.99799,0 59.08556,-12.41913 79.58809,-32.53294 l -0.0797,0.0299 -30.72887,-30.5993 z"
         style="fill:#004ebc;stroke-width:0" />
      <path
         id="path228"
         d="m 434.34067,127.87141 83.66468,-18.12037 C 498.35003,93.464632 473.13302,83.656907 445.60361,83.666874 h -0.0199 c -44.90224,0 -83.69458,26.084166 -102.14387,63.899716 L 427.254,129.40636 c 2.31239,-0.62794 4.67461,-1.14623 7.07671,-1.53495 z m -5.50189,137.78657 -85.39897,-18.51906 c 18.45925,37.79562 57.26156,63.85985 102.1638,63.84988 h 0.19934 c 27.41977,-0.0399 52.51718,-9.80772 72.12266,-26.02435 L 432.3871,266.41549 c -1.19606,-0.22925 -2.37219,-0.47843 -3.54832,-0.76748 z M 174.37616,232.70642 v 0.0299 l 37.41687,21.8481 0.10964,-0.0897 a 112.87057,112.87057 0 0 0 12.86766,-33.13098 l -42.42041,-9.19972 a 69.959777,69.959777 0 0 1 -7.97376,20.55236 z m 50.36427,-59.52412 a 113.042,113.042 0 0 0 -12.13009,-31.77544 l -37.80559,21.29991 a 70.0744,70.0744 0 0 1 7.51527,19.64535 z m 75.89026,-81.362256 -46.83588,26.383176 v 48.68977 l 46.82591,-10.12667 V 91.820044 Z M 253.79481,227.66301 v 51.44072 l 46.83588,27.34003 v -68.62417 z"
         style="fill:#679bde;stroke-width:0" />
      <path
         id="path230"
         d="m 305.17573,28.64793 c -0.01,-7.495334 -2.98019,-14.27303 -7.77442,-19.2865316 L 258.38969,49.270067 c 4.96367,4.535076 11.55199,7.325892 18.80811,7.335859 15.43919,-0.0299 27.93806,-12.518803 27.96796,-27.957996 z M 162.69461,147.0184 c 4.74438,4.61481 8.83093,9.89743 12.12011,15.69834 l 37.80559,-21.29991 a 113.91214,113.91214 0 0 0 -19.57558,-25.40639 l -30.35012,31.01792 z m 11.68155,85.72788 v -0.0299 a 70.550832,70.550832 0 0 1 -11.93073,15.18005 l 30.72887,30.5993 0.0797,-0.0299 a 113.79552,113.79552 0 0 0 18.64863,-23.96115 l -0.10964,0.0897 z M 253.79481,91.810077 v 26.403113 l 46.83588,-26.383179 z m 0,214.653623 h 46.83588 l -46.83588,-27.35 z"
         class="cls-6"
         style="fill:#0072cf;stroke-width:0" />
      <path
         id="path232"
         d="m 253.79481,227.66301 46.82591,10.15658 v -81.05327 l -46.82591,10.12667 z m 303.87003,-49.2878 c -4.61481,-27.4696 -19.09716,-51.59023 -39.65949,-68.62417 l -83.66468,18.12037 a 71.066136,71.066136 0 0 1 11.26294,-0.90702 c 10.46556,0 20.40286,2.30242 29.33347,6.40891 3.37888,1.62465 30.58934,14.81126 36.57962,45.19129 v 0.0299 l 0.6379,4.28589 H 376.33157 l 2.28249,-7.07671 c 7.25612,-22.58567 25.63564,-40.19772 48.6499,-46.41725 l -83.81418,18.16024 c -4.68459,9.59841 -8.07343,19.94437 -9.89743,30.80861 -1.04656,6.18964 -1.60472,12.49887 -1.60472,18.94765 0,5.86072 0.44852,11.61179 1.29573,17.23329 1.74426,11.52208 5.25272,22.46607 10.19645,32.58278 l 85.3292,18.49912 c -24.37977,-6.02019 -43.78591,-24.74856 -50.74302,-48.75954 l -2.01337,-6.92721 h 182.55924 c 0.45849,-4.14635 0.68773,-8.36248 0.68773,-12.63841 0,-6.44877 -0.56813,-12.76798 -1.59475,-18.94764 z m -12.44903,73.58784 -48.62997,-6.15973 -0.0598,-0.14951 c -3.6181,3.80747 -7.63488,7.23619 -12.03042,10.15658 l 0.0997,0.0399 c -11.17323,7.46544 -24.58909,11.84104 -39.00166,11.84104 -4.50517,0 -8.90071,-0.44853 -13.17664,-1.25587 l 85.48868,18.53899 c 9.36917,-7.75448 17.49244,-16.97414 24.00102,-27.32009 1.19606,-1.87384 2.40209,-3.84734 3.47855,-5.67134 l -0.18938,-0.0199 z"
         style="fill:#a1bdea;stroke-width:0" />
    </g>
    <g
       id="g871"
       transform="matrix(0.27261121,0,0,0.25712192,-13.956596,-14.79219)">
      <rect
         id="BackgroundRed"
         fill="#e60010"
         width="727.91394"
         height="771.76422"
         x="51.195972"
         y="57.529869"
         style="stroke-width:0.877005" />
      <g
         id="ISOGlobe"
         transform="matrix(0.87700477,0,0,0.87700477,51.195972,57.529868)">
	<path
   fill="#ffffff"
   d="m 494.485,591.381 c -2.98,11.608 -6.23,22.526 -9.757,32.583 -23.02,-2.066 -46.787,-3.16 -70.797,-3.16 -23.008,0 -45.543,0.961 -67.324,2.797 -3.482,-9.96 -6.693,-20.748 -9.63,-32.22 h -17.812 c 2.902,11.826 6.145,23.189 9.73,33.912 -30.692,3.188 -61.086,8.785 -90.901,16.736 -17.306,-14.923 -32.691,-31.937 -45.804,-50.648 h -21 c 85.96,135.054 265.128,174.854 400.183,88.896 35.776,-22.772 66.121,-53.117 88.893,-88.896 h -20.989 c -13.335,19.032 -29.025,36.301 -46.698,51.392 -29.564,-8.013 -59.711,-13.699 -90.162,-17.012 3.646,-10.863 6.939,-22.378 9.888,-34.382 z m -239.442,64.181 c 26.327,-6.227 53.039,-10.692 79.958,-13.375 10.707,27.304 24.759,49.768 38.66,63.888 -42.939,-7.351 -83.562,-24.65 -118.618,-50.513 z m 160.692,53.916 c -22.02,0 -44.775,-25.892 -62.677,-68.93 19.896,-1.555 40.312,-2.382 60.875,-2.382 21.809,0 43.391,0.924 64.354,2.665 -17.879,42.86 -40.582,68.647 -62.552,68.647 z m 159.792,-53.257 c -34.857,25.493 -75.151,42.56 -117.719,49.854 13.842,-14.059 27.84,-36.396 38.522,-63.522 26.678,2.769 53.137,7.337 79.197,13.668 z"
   id="path234" />

	<path
   fill="#ffffff"
   d="m 639.271,280.039 h 20.994 C 574.3,144.983 395.129,105.188 260.077,191.154 c -35.773,22.77 -66.115,53.11 -88.885,88.885 h 20.994 c 13.34,-19.025 29.027,-36.292 46.691,-51.392 29.565,8.018 59.713,13.705 90.167,17.016 -3.649,10.871 -6.938,22.373 -9.884,34.375 h 17.814 c 2.981,-11.604 6.229,-22.524 9.76,-32.584 23.019,2.071 46.791,3.162 70.797,3.162 23.012,0 45.536,-0.961 67.326,-2.792 3.475,9.956 6.688,20.752 9.619,32.216 h 17.82 c -2.908,-11.827 -6.152,-23.188 -9.729,-33.909 30.687,-3.191 61.074,-8.788 90.888,-16.732 17.316,14.913 32.706,31.923 45.816,50.64 z M 335.134,228.88 c -26.674,-2.78 -53.132,-7.348 -79.195,-13.671 34.853,-25.501 75.147,-42.568 117.712,-49.861 -13.838,14.054 -27.845,36.405 -38.517,63.532 z m 82.399,4.375 c -21.805,0 -43.396,-0.92 -64.359,-2.659 17.88,-42.858 40.577,-68.651 62.557,-68.651 22.021,0 44.775,25.9 62.672,68.931 -19.89,1.558 -40.31,2.374 -60.87,2.379 z m 78.933,-4.026 c -10.714,-27.304 -24.762,-49.769 -38.665,-63.883 42.939,7.352 83.563,24.65 118.615,50.518 -26.323,6.227 -53.033,10.693 -79.95,13.365 z"
   id="path236" />

</g>
      <g
         id="Lettering"
         transform="matrix(0.87700477,0,0,0.87700477,51.195972,57.529868)">
	<path
   fill="#ffffff"
   d="m 636.921,304.947 c -80.302,0 -137.694,46.683 -137.694,130.253 0,83.568 57.395,130.252 137.694,130.252 80.284,0 137.687,-46.684 137.687,-130.252 -0.003,-83.57 -57.403,-130.253 -137.687,-130.253 z m 0,201.325 c -31.828,0 -52.048,-20.217 -52.048,-71.072 0,-50.846 20.219,-71.063 52.048,-71.063 31.813,0 52.036,20.215 52.036,71.063 0,50.856 -20.226,71.072 -52.036,71.072 z"
   id="path239" />

	<path
   fill="#ffffff"
   d="m 478.651,384.943 v -75.541 h -60.665 c -18.628,-2.605 -37.396,-4.095 -56.201,-4.456 -69.891,0 -117.772,25.581 -117.772,82.084 0,111.225 160.296,62.735 160.296,104.369 0,12.797 -12.796,19.935 -44.313,19.935 -23.792,0 -44.605,-5.063 -53.523,-9.813 v -16.064 h -60.671 v 75.534 h 60.671 c 19.724,2.625 39.577,4.114 59.471,4.461 91.896,0 122.522,-37.464 122.522,-83.261 0,-110.624 -161.771,-59.782 -161.771,-104.083 0,-10.712 11.002,-19.034 39.248,-19.034 22.013,0 43.121,5.064 52.045,9.811 v 16.061 z"
   id="path241" />

	<polygon
   fill="#ffffff"
   points="186.906,499.057 186.906,372.365 227.647,372.365 227.647,309.916 65.579,309.916 65.579,372.365 106.311,372.365 106.311,499.057 65.579,499.057 65.579,561.506 227.647,561.506 227.647,499.057 "
   id="polygon243" />

</g>
    </g>
  </g>
</svg>
