<?xml version="1.0" encoding="UTF-8" standalone="no"?>
<svg
   id="Calque_1"
   data-name="Calque 1"
   viewBox="0 0 207.66799 166.91"
   version="1.1"
   sodipodi:docname="logo-cen.svg"
   width="207.668"
   height="166.91"
   inkscape:version="1.2-dev (9ee32be, 2021-06-19)"
   xmlns:inkscape="http://www.inkscape.org/namespaces/inkscape"
   xmlns:sodipodi="http://sodipodi.sourceforge.net/DTD/sodipodi-0.dtd"
   xmlns="http://www.w3.org/2000/svg"
   xmlns:svg="http://www.w3.org/2000/svg"
   xmlns:rdf="http://www.w3.org/1999/02/22-rdf-syntax-ns#"
   xmlns:cc="http://creativecommons.org/ns#"
   xmlns:dc="http://purl.org/dc/elements/1.1/">
  <sodipodi:namedview
     id="namedview858"
     pagecolor="#ffffff"
     bordercolor="#666666"
     borderopacity="1.0"
     inkscape:pageshadow="2"
     inkscape:pageopacity="0.0"
     inkscape:pagecheckerboard="0"
     showgrid="false"
     inkscape:zoom="1"
     inkscape:cx="294.5"
     inkscape:cy="88.5"
     inkscape:window-width="1512"
     inkscape:window-height="869"
     inkscape:window-x="0"
     inkscape:window-y="38"
     inkscape:window-maximized="0"
     inkscape:current-layer="Calque_1" />
  <defs
     id="defs826">
    <style
       id="style824">.cls-1{fill:#004577;}.cls-2{fill:none;stroke:#004577;stroke-width:3.81px;}.cls-3{fill:#fff;}.cls-4{fill:#b2b1b1;}</style>
  </defs>
  <title
     id="title828">logo-cen-cenelec</title>
  <g
     id="g952"
     transform="translate(0.00294266,-4.9949982)">
    <path
       class="cls-1"
       d="m 204.84,107.43 c -0.2,0 -0.2,-0.26 -0.26,-0.32 a 4.79,4.79 0 0 1 -2,-1.73 c -0.13,-0.26 -0.46,-0.13 -0.62,-0.33 0.59,0.1 0.95,-0.42 0.56,-0.81 a 3.9,3.9 0 0 0 -2.45,-1 1.08,1.08 0 0 1 -0.42,-0.33 0.52,0.52 0 0 0 0.45,-0.16 c 0.33,-0.33 0.2,-0.85 0.43,-1.21 0.09,-0.13 0.42,0 0.52,-0.29 -0.39,-0.13 -0.91,0.16 -1.24,-0.26 0.33,-0.17 0.68,-0.75 0.78,-0.72 a 115.22,115.22 0 0 0 -14.51,0.26 V 6.9 H 23.03 v 146.27 c -11.39,5.38 -19.32,9.52 -22,11.25 2.9,-0.23 5.06,-1.34 7.67,-2.41 4.76,-2 2.31,-0.85 7.4,-2.61 l 6.93,-2.15 V 170 h 163.1 v -58.65 a 72.21,72.21 0 0 0 8.41,-0.16 c 2.64,-0.2 -0.59,-0.2 2.15,-0.69 1,-0.19 3.5,1.47 2.71,1 -1.76,-1.18 1.24,-1.08 3.3,-0.82 1.14,0.13 -2.68,-1.83 -1.54,-1.73 0.95,0.07 1.9,-0.36 2.74,-0.13 0.53,0.17 1.24,0.39 1.6,0.13 0.59,-0.45 0.23,-1.4 -0.65,-1.47"
       id="path830" />
    <path
       class="cls-2"
       d="m 204.84,107.43 c -0.2,0 -0.2,-0.26 -0.26,-0.32 a 4.79,4.79 0 0 1 -2,-1.73 c -0.13,-0.26 -0.46,-0.13 -0.62,-0.33 0.59,0.1 0.95,-0.42 0.56,-0.81 a 3.9,3.9 0 0 0 -2.45,-1 1.08,1.08 0 0 1 -0.42,-0.33 0.52,0.52 0 0 0 0.45,-0.16 c 0.33,-0.33 0.2,-0.85 0.43,-1.21 0.09,-0.13 0.42,0 0.52,-0.29 -0.39,-0.13 -0.91,0.16 -1.24,-0.26 0.33,-0.17 0.68,-0.75 0.78,-0.72 a 115.22,115.22 0 0 0 -14.51,0.26 V 6.9 H 23.03 v 146.27 c -11.39,5.38 -19.32,9.52 -22,11.25 2.9,-0.23 5.06,-1.34 7.67,-2.41 4.76,-2 2.31,-0.85 7.4,-2.61 l 6.93,-2.15 V 170 h 163.1 v -58.65 a 72.21,72.21 0 0 0 8.41,-0.16 c 2.64,-0.2 -0.59,-0.2 2.15,-0.69 1,-0.19 3.5,1.47 2.71,1 -1.76,-1.18 1.24,-1.08 3.3,-0.82 1.14,0.13 -2.68,-1.83 -1.54,-1.73 0.95,0.07 1.9,-0.36 2.74,-0.13 0.53,0.17 1.24,0.39 1.6,0.13 0.58,-0.5 0.22,-1.45 -0.66,-1.52 z"
       id="path832" />
    <path
       class="cls-3"
       d="M 46.08,85.94 C 14.67,85.94 14.5,29.67 50.32,29.67 H 75.93 V 41.9 H 51.69 C 29.18,42.55 27.97,72.79 50.19,73.77 H 75.93 V 86 Z"
       id="path834" />
    <path
       class="cls-3"
       d="m 186.51,57.66 c 0,-35.82 -56.27,-35.69 -56.27,-4.24 V 73.77 H 99.71 c -6.89,-0.16 -9.76,-1.37 -12.43,-8 a 4.41,4.41 0 0 1 -0.25,-1.2 h 40 c 0.94,-29.94 -17.55,-35 -28.15,-35 -14.55,0 -26.56,13.18 -26.56,28.94 C 72.3,71.29 83.88,86 99.67,86 h 42.77 V 57.56 c 2.06,-21.27 30.27,-20.78 31.8,1.5 V 86 h 12.2 z M 87.03,51.17 c 4,-12 18.4,-9.86 21.79,-3.82 a 16.17,16.17 0 0 1 2.19,6.23 H 86.54 Z"
       id="path836" />
    <path
       class="cls-3"
       d="m 24.78,153 c 5.74,-2.9 18.26,-5.38 24.49,-7.92 1.44,-0.75 8,-4.05 9.6,-4.93 0.65,-0.36 1.46,-0.42 2,-1 0.16,-0.19 0.42,0.36 0.52,0.43 0.58,0.22 0.88,-0.59 1.37,-0.89 0,0.2 0.23,0.3 0.16,0.49 a 0.85,0.85 0 0 1 1,0.07 c 0.26,0.16 0.45,-0.2 0.62,-0.36 0.17,-0.16 0.09,-0.75 0.45,-0.88 0.36,-0.13 0.88,0 1.27,-0.23 a 0.61,0.61 0 0 0 0.33,-0.68 c 1.18,0 1,-0.92 2.09,-1.15 a 24.27,24.27 0 0 0 2.8,-0.16 3.56,3.56 0 0 1 0.79,-0.1 c 0.81,-0.19 1.27,-1.4 2.08,-1.66 a 9.56,9.56 0 0 0 2.42,-0.62 9.27,9.27 0 0 1 1.69,-0.49 c 0.27,-0.1 0.53,-0.23 0.79,-0.33 0.26,-0.1 0.58,0 0.88,-0.13 0.3,-0.13 0.81,-0.48 1.24,-0.68 a 2.83,2.83 0 0 1 0.78,-0.1 c 0,0.1 0.07,0.2 0.13,0.16 0.91,-0.22 7.28,-3 8.16,-3.29 0.49,-0.16 16.7,-5.38 17.74,-5.94 0.65,-0.36 2.35,-0.42 3.07,-0.81 a 4.8,4.8 0 0 1 1.66,-0.43 12.19,12.19 0 0 0 1.4,-0.42 c -2.38,0.62 -1.46,0.68 2.35,-0.52 0.49,-0.17 1,0 1.67,-0.2 a 14.42,14.42 0 0 0 4.27,-1.66 18.26,18.26 0 0 1 2.19,-0.62 14,14 0 0 1 2.28,-0.72 c 0.26,0 3.2,-0.91 6.49,-1.56 0.16,0 1.34,-0.56 1.53,-0.66 0.82,-0.36 0.36,0.07 1.18,-0.49 0.55,-0.36 1.82,0 2.54,-0.06 0.13,0 0.78,-0.1 0.91,-0.13 0.92,-0.2 1,0 1.9,0 a 7.35,7.35 0 0 0 2.64,-0.49 c 2.64,-0.78 4.63,-0.82 7.31,-1.44 2.12,-0.49 3.71,-0.32 5.61,-0.94 3,-1 1.17,-0.07 4.47,-1 2.28,-0.65 4.66,-1 6.94,-1.5 2.28,-0.5 4.83,-1.66 8.65,-1.86 0.45,0 3.29,-0.45 3.75,-0.52 1.83,-0.16 4.73,0.46 6.49,0.59 a 65.77,65.77 0 0 0 8.74,-0.16 c 2.65,-0.2 -0.58,-0.2 2.19,-0.69 1,-0.2 3.49,1.47 2.71,0.95 -1.77,-1.18 1.24,-1.08 3.29,-0.82 1.14,0.13 -2.67,-1.79 -1.53,-1.73 0.94,0.07 1.89,-0.36 2.74,-0.13 0.52,0.13 1.24,0.39 1.6,0.1 0.52,-0.42 0.16,-1.37 -0.69,-1.44 -0.19,0 -0.19,-0.26 -0.26,-0.32 a 4.79,4.79 0 0 1 -2,-1.73 c -0.13,-0.26 -0.45,-0.13 -0.62,-0.33 0.59,0.1 1,-0.42 0.56,-0.81 a 3.9,3.9 0 0 0 -2.45,-1 c -0.16,0 -0.29,-0.2 -0.46,-0.33 a 0.56,0.56 0 0 0 0.46,-0.16 c 0.33,-0.33 0.2,-0.85 0.42,-1.21 0.1,-0.13 0.43,0 0.53,-0.29 -0.39,-0.13 -0.92,0.16 -1.24,-0.26 0.36,-0.17 0.68,-0.75 0.78,-0.75 C 139.14,93 14.83,152.25 2.56,160.25 c 2.91,-0.23 5.06,-1.31 7.67,-2.42 4.76,-2 2.35,-0.85 7.4,-2.61 z"
       id="path838" />
  </g>
  <metadata
     id="metadata940">
    <rdf:RDF>
      <cc:Work
         rdf:about="">
        <dc:title>logo-cen-cenelec</dc:title>
      </cc:Work>
    </rdf:RDF>
  </metadata>
</svg>
