<svg width="242" height="91" viewBox="0 0 242 91" fill="none" xmlns="http://www.w3.org/2000/svg">
<g clip-path="url(#clip0_2334_8595)">
<path d="M151.543 30.6343C153.747 30.6343 155.35 31.077 156.392 31.9623C157.434 32.8477 157.955 34.1354 157.955 35.7452C157.955 36.4695 157.834 37.1939 157.594 37.8378C157.353 38.5219 156.993 39.0854 156.472 39.6488C155.951 40.1719 155.27 40.6146 154.428 40.8963C153.587 41.2182 152.545 41.3792 151.303 41.3792H149.62V47.6572H146.535V30.6343H151.543ZM151.383 33.1696H149.62V38.8036H151.022C151.824 38.8036 152.505 38.7232 153.066 38.5219C153.627 38.3207 154.068 37.9988 154.388 37.5964C154.669 37.1537 154.829 36.5903 154.829 35.9061C154.829 35.0208 154.549 34.3367 153.988 33.894C153.467 33.4111 152.585 33.1696 151.383 33.1696Z" fill="black"/>
<path d="M174.744 47.6572H171.698V40.0914H164.245V47.6572H161.2V30.6343H164.245V37.5159H171.698V30.6343H174.744V47.6572Z" fill="black"/>
<path d="M184.561 38.2L188.407 30.6343H191.693L186.083 41.017V47.6572H183.038V41.1378L177.428 30.6343H180.754L184.561 38.2Z" fill="black"/>
<path d="M203.754 42.989C203.754 43.9951 203.514 44.8402 203.033 45.6048C202.552 46.3292 201.831 46.8926 200.91 47.295C199.988 47.6974 198.866 47.8987 197.584 47.8987C196.983 47.8987 196.382 47.8584 195.821 47.7779C195.26 47.6974 194.739 47.617 194.218 47.456C193.737 47.295 193.256 47.134 192.815 46.9328V44.0756C193.537 44.3975 194.298 44.6792 195.18 44.9609C196.021 45.2426 196.903 45.3633 197.784 45.3633C198.465 45.3633 199.026 45.2829 199.467 45.0816C199.908 44.8804 200.228 44.639 200.429 44.317C200.629 43.9951 200.749 43.6329 200.749 43.1902C200.749 42.7073 200.629 42.3048 200.349 41.9829C200.068 41.661 199.667 41.339 199.146 41.0573C198.626 40.7756 197.984 40.4537 197.183 40.172C196.662 39.9305 196.141 39.689 195.66 39.4073C195.18 39.1256 194.699 38.8037 194.338 38.4013C193.937 37.9988 193.617 37.5159 193.376 36.9927C193.136 36.4696 193.016 35.8257 193.016 35.1013C193.016 34.1355 193.256 33.2904 193.697 32.6062C194.178 31.9221 194.819 31.3587 195.66 30.9965C196.502 30.6343 197.504 30.4331 198.626 30.4331C199.507 30.4331 200.389 30.5136 201.15 30.7148C201.951 30.916 202.713 31.1575 203.514 31.5197L202.552 33.9745C201.871 33.6526 201.19 33.4513 200.549 33.2501C199.908 33.0892 199.227 32.9684 198.545 32.9684C198.024 32.9684 197.544 33.0489 197.183 33.2099C196.822 33.3709 196.502 33.6123 196.342 33.894C196.141 34.216 196.061 34.5379 196.061 34.9403C196.061 35.383 196.181 35.7855 196.422 36.1074C196.662 36.4293 197.023 36.711 197.544 36.9927C198.024 37.2745 198.706 37.5964 199.467 37.9183C200.389 38.3208 201.15 38.7232 201.791 39.1659C202.432 39.6086 202.913 40.0915 203.274 40.6951C203.594 41.3793 203.754 42.1036 203.754 42.989Z" fill="black"/>
<path d="M213.17 47.6572H206.038V45.9267L208.082 45.1621V33.1696L206.038 32.3647V30.6343H213.17V32.3647L211.127 33.1696V45.1621L213.17 45.9267V47.6572Z" fill="black"/>
<path d="M223.509 33.0086C222.747 33.0086 222.066 33.1293 221.425 33.411C220.824 33.6927 220.303 34.0952 219.862 34.6183C219.422 35.1415 219.101 35.8256 218.861 36.5902C218.62 37.3549 218.5 38.2 218.5 39.1658C218.5 40.4536 218.7 41.5401 219.061 42.4657C219.422 43.3913 219.983 44.0755 220.744 44.5584C221.505 45.0413 222.427 45.2828 223.549 45.2828C224.31 45.2828 224.991 45.2023 225.672 45.0413C226.354 44.8803 226.995 44.6791 227.676 44.4779V47.0937C226.995 47.3754 226.314 47.5766 225.592 47.6974C224.871 47.8181 224.07 47.8986 223.148 47.8986C221.385 47.8986 219.942 47.5364 218.78 46.812C217.618 46.0876 216.737 45.0816 216.176 43.7535C215.615 42.4255 215.334 40.8963 215.334 39.1256C215.334 37.8378 215.495 36.6707 215.855 35.5842C216.216 34.5378 216.737 33.6122 217.418 32.8074C218.099 32.0025 218.981 31.3989 219.983 30.9964C220.984 30.594 222.146 30.3525 223.469 30.3525C224.31 30.3525 225.192 30.433 226.033 30.6342C226.875 30.8355 227.676 31.0769 228.357 31.4391L227.315 33.9342C226.754 33.6525 226.153 33.4513 225.512 33.25C224.951 33.0891 224.27 33.0086 223.509 33.0086Z" fill="black"/>
<path d="M241.219 42.989C241.219 43.9951 240.979 44.8402 240.498 45.6048C240.017 46.3292 239.296 46.8926 238.374 47.295C237.453 47.6974 236.331 47.8987 235.049 47.8987C234.448 47.8987 233.846 47.8584 233.285 47.7779C232.725 47.6974 232.204 47.617 231.683 47.456C231.202 47.295 230.721 47.134 230.28 46.9328V44.0756C231.002 44.3975 231.763 44.6792 232.644 44.9609C233.486 45.2426 234.367 45.3633 235.249 45.3633C235.93 45.3633 236.491 45.2829 236.932 45.0816C237.373 44.8804 237.693 44.639 237.894 44.317C238.094 43.9951 238.214 43.6329 238.214 43.1902C238.214 42.7073 238.094 42.3048 237.813 41.9829C237.533 41.661 237.132 41.339 236.611 41.0573C236.09 40.7756 235.449 40.4537 234.648 40.172C234.127 39.9305 233.606 39.689 233.125 39.4073C232.644 39.1256 232.164 38.8037 231.803 38.4013C231.402 37.9988 231.082 37.5159 230.841 36.9927C230.601 36.4696 230.481 35.8257 230.481 35.1013C230.481 34.1355 230.721 33.2904 231.162 32.6062C231.643 31.9221 232.284 31.3587 233.125 30.9965C233.967 30.6343 234.968 30.4331 236.09 30.4331C237.012 30.4331 237.853 30.5136 238.615 30.7148C239.416 30.916 240.177 31.1575 240.979 31.5197L240.017 33.9745C239.336 33.6526 238.655 33.4513 238.014 33.2501C237.373 33.0892 236.691 32.9684 236.01 32.9684C235.489 32.9684 235.008 33.0489 234.648 33.2099C234.287 33.3709 233.967 33.6123 233.806 33.894C233.606 34.216 233.526 34.5379 233.526 34.9403C233.526 35.383 233.646 35.7855 233.887 36.1074C234.127 36.4293 234.488 36.711 235.008 36.9927C235.489 37.2745 236.171 37.5964 236.932 37.9183C237.853 38.3208 238.615 38.7232 239.256 39.1659C239.897 39.6086 240.378 40.0915 240.738 40.6951C241.019 41.3793 241.219 42.1036 241.219 42.989Z" fill="black"/>
<path d="M153.908 71.601H151.063V57.1939H146.495V54.5781H158.476V57.1939H153.908V71.601Z" fill="black"/>
<path d="M174.664 63.0694C174.664 64.3974 174.504 65.5645 174.223 66.651C173.902 67.7376 173.462 68.6632 172.821 69.4278C172.22 70.1925 171.418 70.7961 170.497 71.1985C169.575 71.601 168.453 71.8022 167.211 71.8022C165.929 71.8022 164.807 71.601 163.845 71.1583C162.923 70.7559 162.122 70.1522 161.521 69.3876C160.92 68.623 160.439 67.6974 160.119 66.6108C159.798 65.5242 159.678 64.3169 159.678 63.0292C159.678 61.2987 159.958 59.7695 160.479 58.4414C161.04 57.1134 161.842 56.1073 162.963 55.383C164.085 54.6586 165.488 54.2964 167.211 54.2964C168.894 54.2964 170.256 54.6586 171.378 55.383C172.5 56.1073 173.301 57.1134 173.862 58.4414C174.423 59.7695 174.664 61.3389 174.664 63.0694ZM162.723 63.0694C162.723 64.3572 162.883 65.4438 163.204 66.3693C163.524 67.2949 164.005 67.9791 164.686 68.5022C165.368 68.9852 166.209 69.2266 167.251 69.2266C168.293 69.2266 169.134 68.9852 169.815 68.5022C170.456 68.0193 170.937 67.2949 171.258 66.3693C171.578 65.4438 171.699 64.3572 171.699 63.0694C171.699 61.1377 171.338 59.6487 170.657 58.5622C169.976 57.4756 168.854 56.9122 167.291 56.9122C166.249 56.9122 165.408 57.1537 164.727 57.6366C164.045 58.1195 163.564 58.8439 163.244 59.7292C162.843 60.6951 162.723 61.7816 162.723 63.0694Z" fill="black"/>
<path d="M191.012 62.8682C191.012 64.7999 190.692 66.4096 190.011 67.6974C189.329 68.9852 188.368 69.9913 187.126 70.6352C185.883 71.2791 184.401 71.601 182.678 71.601H177.95V54.5781H183.119C184.762 54.5781 186.164 54.9001 187.366 55.544C188.568 56.1879 189.45 57.1134 190.091 58.3207C190.692 59.528 191.012 61.0573 191.012 62.8682ZM188.007 62.9487C188.007 61.6207 187.807 60.5341 187.406 59.689C187.005 58.8439 186.444 58.2 185.683 57.7573C184.922 57.3549 184 57.1134 182.918 57.1134H180.835V68.9852H182.518C184.361 68.9852 185.723 68.462 186.605 67.456C187.566 66.5304 188.007 65.0011 188.007 62.9487Z" fill="black"/>
<path d="M203.795 71.6004L202.312 67.1334H196.422L194.939 71.6004H191.894L197.744 54.4971H201.03L206.88 71.6004H203.795ZM200.229 60.2921C200.188 60.0909 200.068 59.8092 199.948 59.3665C199.828 58.9641 199.708 58.5214 199.587 58.0385C199.467 57.5958 199.387 57.2336 199.347 56.9519C199.267 57.3141 199.187 57.6763 199.107 58.119C199.026 58.5214 198.906 58.9238 198.826 59.3263C198.746 59.6884 198.626 60.0104 198.586 60.2921L197.183 64.5176H201.591L200.229 60.2921Z" fill="black"/>
<path d="M212.29 62.1839L215.896 54.6182H219.021L213.732 65.0009V71.641H210.847V65.1216L205.558 54.6182H208.724L212.29 62.1839Z" fill="black"/>
<path d="M0 90.7972V0.25H43.3554C49.1254 0.25 53.7735 0.934134 57.3797 2.3024C60.9459 3.67067 63.7108 5.64259 65.6341 8.21815C67.5574 10.7937 68.8797 13.9729 69.5609 17.7558C70.2421 21.5387 70.6027 25.8849 70.6027 30.7946C70.6027 35.2616 70.2822 39.3664 69.601 43.109C68.9599 46.8516 67.6776 50.0711 65.7944 52.7674C63.9111 55.5039 61.1463 57.5966 57.4599 59.0856C53.7735 60.5746 48.925 61.3392 42.9146 61.3392H22.7195V90.7972H0ZM22.7996 43.9541H34.1794C37.3049 43.9541 39.7892 43.7931 41.5923 43.431C43.3954 43.109 44.7177 42.4651 45.5993 41.62C46.4808 40.7347 47.0418 39.4871 47.3223 37.8372C47.6028 36.1872 47.723 34.014 47.723 31.3178C47.723 28.6215 47.6028 26.4483 47.4024 24.7581C47.2021 23.0679 46.6411 21.7801 45.7595 20.8948C44.878 20.0094 43.5557 19.4058 41.8327 19.1241C40.0697 18.8424 37.6655 18.6814 34.6202 18.6814H22.8397V43.9541H22.7996Z" fill="#F1B232"/>
<path d="M98.8518 90.7975V18.6817H74.209V0.290527H146.414V18.6817H121.651V90.7975H98.8518Z" fill="#F1B232"/>
</g>
<defs>
<clipPath id="clip0_2334_8595">
<rect width="242" height="90.75" fill="white" transform="translate(0 0.25)"/>
</clipPath>
</defs>
</svg>
