<svg xmlns="http://www.w3.org/2000/svg" width="225.14" height="53.44" viewBox="0 0 225.14 53.44"><path d="M29.56,42.64a9.72,9.72,0,0,1,0-18.88v-8c-9.21,1.09-16,8.47-16,17.43a17.79,17.79,0,0,0,16,17.53Z" transform="translate(-13.51 -15.57)" fill="#5d6365"/><path d="M34.27,15.72v8a9.73,9.73,0,0,1,0,18.89v8a17.81,17.81,0,0,0,16-17.53C50.31,24.18,43.43,16.8,34.27,15.72Z" transform="translate(-13.51 -15.57)" fill="#010101"/><polygon points="51.41 14.88 51.4 14.83 61.04 27.7 61.54 27.7 69.62 16.78 70.94 14.96 70.94 15 79.42 3.53 79.42 1.06 70.67 1.06 61.48 14.29 51.76 1.06 42.92 1.06 42.92 3.4 51.41 14.88" fill="#010101"/><polygon points="42.92 11.32 42.92 34.18 51.45 34.18 51.45 22.85 42.92 11.32" fill="#010101"/><polygon points="70.89 22.98 70.89 34.18 79.42 34.18 79.42 11.45 70.89 22.98" fill="#010101"/><path d="M110.92,25.94a10,10,0,0,1,13.66.47l5.5-6.17a19.21,19.21,0,0,0-12.56-4.67,18.32,18.32,0,0,0-16.84,10.37Z" transform="translate(-13.51 -15.57)" fill="#010101"/><path d="M120.79,30.87,118,37.59h7.07a8,8,0,0,1-7.55,5.33,9.58,9.58,0,0,1-9.77-9.77,9.79,9.79,0,0,1,.33-2.5h-8.8a17.21,17.21,0,0,0-.18,2.5c0,9.77,8,17.67,18.42,17.67,9.41,0,16.78-7.72,16.78-17.75v-2.2Z" transform="translate(-13.51 -15.57)" fill="#010101"/><rect x="2.91" y="42.89" width="31.08" height="7.28" fill="#2376bc"/><path d="M152.68,22.5a3.2,3.2,0,0,0-1.91-.54,4.73,4.73,0,0,0-.93.09,2.64,2.64,0,0,0-.81.32,1.62,1.62,0,0,0-.57.59,1.82,1.82,0,0,0-.21.92,1.16,1.16,0,0,0,.31.84,2.22,2.22,0,0,0,.82.52,6.53,6.53,0,0,0,1.15.34l1.31.29c.45.11.88.23,1.31.37a4.32,4.32,0,0,1,1.16.57,2.86,2.86,0,0,1,.82.91,2.89,2.89,0,0,1,.3,1.39,2.82,2.82,0,0,1-.4,1.53,3.41,3.41,0,0,1-1,1,4.7,4.7,0,0,1-1.4.58,6.9,6.9,0,0,1-1.55.18,6.43,6.43,0,0,1-1.78-.24,4.24,4.24,0,0,1-1.48-.71,3.38,3.38,0,0,1-1-1.23,4,4,0,0,1-.37-1.77h1.42a2.56,2.56,0,0,0,.27,1.22,2.58,2.58,0,0,0,.73.84,3,3,0,0,0,1,.49,5,5,0,0,0,2.24.06,3,3,0,0,0,.92-.32,1.87,1.87,0,0,0,.66-.62,1.82,1.82,0,0,0,.25-1,1.38,1.38,0,0,0-.31-.94,2.18,2.18,0,0,0-.81-.59,6.59,6.59,0,0,0-1.16-.37L150.35,27c-.45-.1-.88-.21-1.31-.34a4.92,4.92,0,0,1-1.16-.52,2.47,2.47,0,0,1-.81-.83,2.4,2.4,0,0,1-.31-1.28,3,3,0,0,1,.35-1.47,2.89,2.89,0,0,1,.91-1,4.13,4.13,0,0,1,1.31-.6,6,6,0,0,1,3.1,0,3.6,3.6,0,0,1,1.3.64,3.12,3.12,0,0,1,.88,1.11,4,4,0,0,1,.35,1.59h-1.41A2.39,2.39,0,0,0,152.68,22.5Z" transform="translate(-13.51 -15.57)" fill="#2376bc"/><path d="M160.51,24.06v1.18h-1.62v5.05a1.26,1.26,0,0,0,0,.37.32.32,0,0,0,.15.22.59.59,0,0,0,.3.1,3.49,3.49,0,0,0,.51,0h.62v1.18h-1a5.44,5.44,0,0,1-.89-.07,1.38,1.38,0,0,1-.6-.26,1.22,1.22,0,0,1-.34-.54,3.18,3.18,0,0,1-.11-.91V25.24h-1.38V24.06h1.38V21.63h1.34v2.43Z" transform="translate(-13.51 -15.57)" fill="#2376bc"/><path d="M169.19,32.16a2,2,0,0,1-.95.2,1.18,1.18,0,0,1-.83-.29,1.29,1.29,0,0,1-.31-.95,3.18,3.18,0,0,1-1.28.95,4.26,4.26,0,0,1-1.57.29,4,4,0,0,1-1.05-.13,2.42,2.42,0,0,1-.86-.39,1.87,1.87,0,0,1-.57-.7,2.35,2.35,0,0,1-.21-1,2.47,2.47,0,0,1,.23-1.13,2,2,0,0,1,.63-.72,3,3,0,0,1,.88-.42c.33-.09.66-.17,1-.23s.71-.13,1-.17a5.18,5.18,0,0,0,.88-.15,1.42,1.42,0,0,0,.59-.3.72.72,0,0,0,.22-.58,1.32,1.32,0,0,0-.16-.7,1.06,1.06,0,0,0-.43-.41,1.72,1.72,0,0,0-.58-.19,4.58,4.58,0,0,0-.63-.05,2.79,2.79,0,0,0-1.42.33,1.35,1.35,0,0,0-.61,1.21h-1.34a2.87,2.87,0,0,1,.32-1.27,2.53,2.53,0,0,1,.75-.84A3.18,3.18,0,0,1,164,24a5.32,5.32,0,0,1,1.29-.14,8.13,8.13,0,0,1,1.1.07,2.91,2.91,0,0,1,1,.33,1.76,1.76,0,0,1,.7.68,2.14,2.14,0,0,1,.27,1.14v4.17a2.79,2.79,0,0,0,.06.69c0,.15.16.22.37.22a1.62,1.62,0,0,0,.4-.06ZM167,28a1.67,1.67,0,0,1-.66.28l-.86.14q-.45,0-.9.12a3.16,3.16,0,0,0-.82.23,1.46,1.46,0,0,0-.59.44A1.28,1.28,0,0,0,163,30a1.08,1.08,0,0,0,.14.56,1.2,1.2,0,0,0,.34.37,1.5,1.5,0,0,0,.5.2,2.81,2.81,0,0,0,.59.06,3.25,3.25,0,0,0,1.14-.18,2.48,2.48,0,0,0,.77-.45,1.93,1.93,0,0,0,.44-.6,1.53,1.53,0,0,0,.14-.6Z" transform="translate(-13.51 -15.57)" fill="#2376bc"/><path d="M171.71,24.06v1.29h0a2.8,2.8,0,0,1,2.64-1.47,3.42,3.42,0,0,1,1.33.22,2.14,2.14,0,0,1,.87.61,2.26,2.26,0,0,1,.46.93,4.94,4.94,0,0,1,.14,1.2v5.35h-1.34v-5.5a1.52,1.52,0,0,0-1.65-1.64,2.83,2.83,0,0,0-1.06.19,2.07,2.07,0,0,0-.75.54,2.27,2.27,0,0,0-.44.81,3.2,3.2,0,0,0-.15,1v4.59h-1.34V24.06Z" transform="translate(-13.51 -15.57)" fill="#2376bc"/><path d="M185.12,32.19v-1.1h0a2,2,0,0,1-1,1,3.94,3.94,0,0,1-1.56.3,3.67,3.67,0,0,1-1.64-.35,3.41,3.41,0,0,1-1.16-.92,3.94,3.94,0,0,1-.7-1.35,5.51,5.51,0,0,1-.24-1.64,5.78,5.78,0,0,1,.23-1.63,3.84,3.84,0,0,1,.69-1.35,3.48,3.48,0,0,1,1.16-.91,3.8,3.8,0,0,1,1.63-.33,4.27,4.27,0,0,1,.68.06,3.27,3.27,0,0,1,.72.21,3.07,3.07,0,0,1,.68.39,2.1,2.1,0,0,1,.54.61h0V21h1.34V32.19Zm-4.79-2.89a2.88,2.88,0,0,0,.45,1,2.36,2.36,0,0,0,.79.68,2.47,2.47,0,0,0,1.12.25,2.3,2.3,0,0,0,1.15-.27,2.35,2.35,0,0,0,.77-.7,2.9,2.9,0,0,0,.43-1,4.7,4.7,0,0,0,.13-1.12A4.89,4.89,0,0,0,185,27a2.67,2.67,0,0,0-.45-1,2.3,2.3,0,0,0-.79-.69,2.54,2.54,0,0,0-1.18-.26,2.3,2.3,0,0,0-1.15.27,2.13,2.13,0,0,0-.75.71,3.19,3.19,0,0,0-.41,1,5.66,5.66,0,0,0-.12,1.17A4.11,4.11,0,0,0,180.33,29.3Z" transform="translate(-13.51 -15.57)" fill="#2376bc"/><path d="M195.73,32.16a2,2,0,0,1-1,.2,1.16,1.16,0,0,1-.82-.29,1.25,1.25,0,0,1-.31-.95,3.25,3.25,0,0,1-1.28.95,4.31,4.31,0,0,1-1.58.29,3.9,3.9,0,0,1-1-.13,2.34,2.34,0,0,1-.86-.39,1.87,1.87,0,0,1-.57-.7,2.22,2.22,0,0,1-.22-1,2.34,2.34,0,0,1,.24-1.13,2,2,0,0,1,.62-.72,3.11,3.11,0,0,1,.88-.42c.33-.09.67-.17,1-.23s.72-.13,1-.17a4.89,4.89,0,0,0,.87-.15,1.54,1.54,0,0,0,.6-.3.75.75,0,0,0,.22-.58,1.32,1.32,0,0,0-.17-.7,1.1,1.1,0,0,0-.42-.41,1.88,1.88,0,0,0-.58-.19,4.72,4.72,0,0,0-.64-.05,2.72,2.72,0,0,0-1.41.33,1.35,1.35,0,0,0-.62,1.21h-1.33a2.87,2.87,0,0,1,.31-1.27,2.45,2.45,0,0,1,.76-.84,3.13,3.13,0,0,1,1.07-.46,5.46,5.46,0,0,1,1.3-.14,7.88,7.88,0,0,1,1.09.07,2.84,2.84,0,0,1,1,.33,1.78,1.78,0,0,1,.71.68,2.14,2.14,0,0,1,.27,1.14v4.17a2.92,2.92,0,0,0,0,.69c0,.15.16.22.37.22a1.69,1.69,0,0,0,.41-.06ZM193.56,28a1.67,1.67,0,0,1-.66.28l-.85.14-.91.12a3.4,3.4,0,0,0-.82.23,1.42,1.42,0,0,0-.58.44,1.22,1.22,0,0,0-.23.79,1.08,1.08,0,0,0,.13.56,1.24,1.24,0,0,0,.35.37,1.44,1.44,0,0,0,.49.2,2.91,2.91,0,0,0,.6.06,3.15,3.15,0,0,0,1.13-.18,2.48,2.48,0,0,0,.77-.45,1.66,1.66,0,0,0,.44-.6,1.53,1.53,0,0,0,.14-.6Z" transform="translate(-13.51 -15.57)" fill="#2376bc"/><path d="M198.2,24.06v1.72h0a3.55,3.55,0,0,1,1.19-1.46,2.9,2.9,0,0,1,1.79-.44v1.41a3.66,3.66,0,0,0-1.36.22,2.21,2.21,0,0,0-.92.64,2.83,2.83,0,0,0-.5,1,5.84,5.84,0,0,0-.16,1.39v3.62h-1.33V24.06Z" transform="translate(-13.51 -15.57)" fill="#2376bc"/><path d="M207.87,32.19v-1.1h0a2,2,0,0,1-1,1,4,4,0,0,1-1.56.3,3.64,3.64,0,0,1-1.64-.35,3.31,3.31,0,0,1-1.16-.92,3.94,3.94,0,0,1-.7-1.35,5.51,5.51,0,0,1-.24-1.64,5.78,5.78,0,0,1,.23-1.63,3.84,3.84,0,0,1,.69-1.35,3.48,3.48,0,0,1,1.16-.91,3.8,3.8,0,0,1,1.63-.33,4.06,4.06,0,0,1,.67.06,3.35,3.35,0,0,1,.73.21,3.07,3.07,0,0,1,.68.39,2.26,2.26,0,0,1,.54.61h0V21h1.34V32.19Zm-4.8-2.89a3.1,3.1,0,0,0,.46,1,2.33,2.33,0,0,0,.78.68,2.51,2.51,0,0,0,1.13.25,2.3,2.3,0,0,0,1.15-.27,2.22,2.22,0,0,0,.76-.7,2.91,2.91,0,0,0,.44-1,4.7,4.7,0,0,0,.13-1.12,4.89,4.89,0,0,0-.14-1.15,2.84,2.84,0,0,0-.45-1,2.3,2.3,0,0,0-.79-.69,2.54,2.54,0,0,0-1.18-.26,2.3,2.3,0,0,0-1.15.27,2.13,2.13,0,0,0-.75.71,3,3,0,0,0-.41,1,5.67,5.67,0,0,0-.13,1.17A4.11,4.11,0,0,0,203.07,29.3Z" transform="translate(-13.51 -15.57)" fill="#2376bc"/><path d="M212.3,30.37a1.38,1.38,0,0,0,.5.49,2.11,2.11,0,0,0,.69.26,4.15,4.15,0,0,0,.79.08,5.14,5.14,0,0,0,.66-.05,2.5,2.5,0,0,0,.64-.17,1.35,1.35,0,0,0,.48-.37,1,1,0,0,0,.19-.62.88.88,0,0,0-.4-.79,3.18,3.18,0,0,0-1-.43c-.39-.11-.82-.21-1.28-.3a6.17,6.17,0,0,1-1.28-.38,2.65,2.65,0,0,1-1-.68,1.78,1.78,0,0,1-.39-1.23,2,2,0,0,1,.27-1.05,2.19,2.19,0,0,1,.71-.71,3.12,3.12,0,0,1,1-.41,4.43,4.43,0,0,1,1.08-.13,6.32,6.32,0,0,1,1.27.11,3,3,0,0,1,1,.41,2.19,2.19,0,0,1,.72.79,3.08,3.08,0,0,1,.31,1.23H216a1.28,1.28,0,0,0-.2-.65,1.47,1.47,0,0,0-.44-.42,2.2,2.2,0,0,0-.59-.23,3.5,3.5,0,0,0-.65-.07,4.3,4.3,0,0,0-.61.05,1.86,1.86,0,0,0-.55.17,1,1,0,0,0-.41.31.76.76,0,0,0-.16.51.75.75,0,0,0,.24.57,1.91,1.91,0,0,0,.62.38,6.1,6.1,0,0,0,.85.25l.95.21c.33.08.66.17,1,.27a3.55,3.55,0,0,1,.85.42,2,2,0,0,1,.59.65,1.93,1.93,0,0,1,.23,1,2.2,2.2,0,0,1-.31,1.23,2.42,2.42,0,0,1-.8.79,3.59,3.59,0,0,1-1.11.41,6.59,6.59,0,0,1-1.24.12,5.84,5.84,0,0,1-1.28-.14,3.25,3.25,0,0,1-1.09-.47,2.35,2.35,0,0,1-.75-.84,2.91,2.91,0,0,1-.32-1.28h1.34A1.53,1.53,0,0,0,212.3,30.37Z" transform="translate(-13.51 -15.57)" fill="#2376bc"/><path d="M150.91,37.74a5.58,5.58,0,0,1,4,1.32,5.29,5.29,0,0,1,1.4,4,9.05,9.05,0,0,1-.32,2.51,4.69,4.69,0,0,1-1,1.84,4.18,4.18,0,0,1-1.68,1.14,6.79,6.79,0,0,1-2.42.39h-3.85V37.74Zm.12,10a5.3,5.3,0,0,0,.63,0,3.14,3.14,0,0,0,.8-.18,3.38,3.38,0,0,0,.84-.44,2.76,2.76,0,0,0,.75-.77,4.24,4.24,0,0,0,.54-1.21,6.51,6.51,0,0,0,.21-1.77,7.59,7.59,0,0,0-.19-1.8,3.4,3.4,0,0,0-.65-1.35,2.82,2.82,0,0,0-1.15-.85,4.67,4.67,0,0,0-1.75-.29h-2.51v8.7Z" transform="translate(-13.51 -15.57)" fill="#2376bc"/><path d="M163.66,48.44a3.67,3.67,0,0,1-2.29.69,4.18,4.18,0,0,1-1.69-.31,3.31,3.31,0,0,1-1.2-.88,3.82,3.82,0,0,1-.73-1.35,7.11,7.11,0,0,1-.28-1.71,4.85,4.85,0,0,1,.29-1.7,4.17,4.17,0,0,1,.79-1.34,3.66,3.66,0,0,1,1.21-.88,3.7,3.7,0,0,1,1.53-.31,3.34,3.34,0,0,1,1.8.45,3.58,3.58,0,0,1,1.15,1.14,4.44,4.44,0,0,1,.59,1.5A6.6,6.6,0,0,1,165,45.3h-6.08a3.33,3.33,0,0,0,.12,1,2.33,2.33,0,0,0,.46.85,2.29,2.29,0,0,0,.8.59,2.74,2.74,0,0,0,1.15.22,2.33,2.33,0,0,0,1.39-.39,1.87,1.87,0,0,0,.71-1.2h1.32A3.25,3.25,0,0,1,163.66,48.44Zm-.32-5.21a2.21,2.21,0,0,0-.48-.73,2.29,2.29,0,0,0-.73-.49,2.25,2.25,0,0,0-.92-.18,2.34,2.34,0,0,0-.93.18,2.14,2.14,0,0,0-.72.49,2.54,2.54,0,0,0-.47.73,3,3,0,0,0-.2.89h4.66A2.69,2.69,0,0,0,163.34,43.23Z" transform="translate(-13.51 -15.57)" fill="#2376bc"/><path d="M168.6,49l-3-8.12h1.49l2.28,6.77h0l2.22-6.77H173L170,49Z" transform="translate(-13.51 -15.57)" fill="#2376bc"/><path d="M180,48.44a3.7,3.7,0,0,1-2.3.69,4.1,4.1,0,0,1-1.68-.31,3.35,3.35,0,0,1-1.21-.88,3.82,3.82,0,0,1-.73-1.35,6.65,6.65,0,0,1-.27-1.71,4.85,4.85,0,0,1,.28-1.7,4.17,4.17,0,0,1,.79-1.34,3.77,3.77,0,0,1,1.21-.88,3.72,3.72,0,0,1,1.54-.31,3.28,3.28,0,0,1,1.79.45,3.58,3.58,0,0,1,1.15,1.14,4.46,4.46,0,0,1,.6,1.5,6.57,6.57,0,0,1,.13,1.56h-6.08a3,3,0,0,0,.13,1,2.18,2.18,0,0,0,.45.85,2.29,2.29,0,0,0,.8.59,2.74,2.74,0,0,0,1.15.22,2.31,2.31,0,0,0,1.39-.39,1.92,1.92,0,0,0,.72-1.2h1.32A3.29,3.29,0,0,1,180,48.44Zm-.32-5.21a2.23,2.23,0,0,0-.49-.73,2.36,2.36,0,0,0-.72-.49,2.32,2.32,0,0,0-.92-.18,2.35,2.35,0,0,0-.94.18,2.1,2.1,0,0,0-.71.49,2.34,2.34,0,0,0-.47.73,2.69,2.69,0,0,0-.21.89h4.67A2.69,2.69,0,0,0,179.67,43.23Z" transform="translate(-13.51 -15.57)" fill="#2376bc"/><path d="M184.1,37.74V49h-1.33V37.74Z" transform="translate(-13.51 -15.57)" fill="#2376bc"/><path d="M186,43.23a3.81,3.81,0,0,1,.76-1.35A3.54,3.54,0,0,1,188,41a4.54,4.54,0,0,1,3.4,0,3.5,3.5,0,0,1,1.23.9,3.81,3.81,0,0,1,.76,1.35,5.38,5.38,0,0,1,.25,1.68,5.25,5.25,0,0,1-.25,1.66,3.81,3.81,0,0,1-.76,1.35,3.36,3.36,0,0,1-1.23.89,4.68,4.68,0,0,1-3.4,0,3.4,3.4,0,0,1-1.24-.89,3.81,3.81,0,0,1-.76-1.35,5.55,5.55,0,0,1-.25-1.66A5.68,5.68,0,0,1,186,43.23Zm1.36,3a2.66,2.66,0,0,0,.55,1,2.32,2.32,0,0,0,1.79.79,2.53,2.53,0,0,0,1-.2,2.49,2.49,0,0,0,.81-.59,2.79,2.79,0,0,0,.54-1,4.05,4.05,0,0,0,.2-1.31,4,4,0,0,0-.2-1.31,2.75,2.75,0,0,0-.54-1,2.38,2.38,0,0,0-.81-.6,2.53,2.53,0,0,0-2,0,2.44,2.44,0,0,0-.8.6,2.62,2.62,0,0,0-.55,1,4,4,0,0,0-.19,1.31A4.06,4.06,0,0,0,187.36,46.22Z" transform="translate(-13.51 -15.57)" fill="#2376bc"/><path d="M196.61,40.84v1.1h0a2,2,0,0,1,1-1,3.77,3.77,0,0,1,1.55-.31,3.64,3.64,0,0,1,1.64.34,3.5,3.5,0,0,1,1.17.94,4.18,4.18,0,0,1,.7,1.36,5.78,5.78,0,0,1,.23,1.63,5.51,5.51,0,0,1-.23,1.64,3.79,3.79,0,0,1-.69,1.34,3.24,3.24,0,0,1-1.16.9,3.8,3.8,0,0,1-1.63.33,4,4,0,0,1-.66-.06,3.76,3.76,0,0,1-.73-.2,3.14,3.14,0,0,1-.69-.39,2.23,2.23,0,0,1-.54-.6h0v4.18h-1.34V40.84Zm4.8,2.88a3,3,0,0,0-.46-1,2.21,2.21,0,0,0-.78-.67,2.38,2.38,0,0,0-1.13-.25,2.18,2.18,0,0,0-1.91,1,2.76,2.76,0,0,0-.43,1,4.56,4.56,0,0,0-.14,1.11,5,5,0,0,0,.14,1.16,3.14,3.14,0,0,0,.45,1,2.36,2.36,0,0,0,.79.68,2.54,2.54,0,0,0,1.18.26,2.29,2.29,0,0,0,1.16-.27A2,2,0,0,0,201,47a3,3,0,0,0,.41-1,5,5,0,0,0,.13-1.16A4.13,4.13,0,0,0,201.41,43.72Z" transform="translate(-13.51 -15.57)" fill="#2376bc"/><path d="M205.82,40.84V42h0a3.18,3.18,0,0,1,4-1.07A1.77,1.77,0,0,1,210.7,42a2.79,2.79,0,0,1,1.08-1,3,3,0,0,1,1.47-.36,4.2,4.2,0,0,1,1.1.13,2.26,2.26,0,0,1,.85.42,1.84,1.84,0,0,1,.55.73A2.7,2.7,0,0,1,216,43v6h-1.34V43.63a3.88,3.88,0,0,0-.06-.7,1.43,1.43,0,0,0-.24-.58,1.12,1.12,0,0,0-.47-.38,1.85,1.85,0,0,0-.8-.14,2.1,2.1,0,0,0-1.55.56,2,2,0,0,0-.57,1.51V49h-1.33V43.63a4,4,0,0,0-.07-.72,1.48,1.48,0,0,0-.25-.57,1.15,1.15,0,0,0-.46-.38,1.8,1.8,0,0,0-.75-.13,2.08,2.08,0,0,0-1,.23,2.35,2.35,0,0,0-.67.57,2.44,2.44,0,0,0-.38.68,1.92,1.92,0,0,0-.12.59V49h-1.33V40.84Z" transform="translate(-13.51 -15.57)" fill="#2376bc"/><path d="M223.73,48.44a3.72,3.72,0,0,1-2.3.69,4.18,4.18,0,0,1-1.69-.31,3.4,3.4,0,0,1-1.2-.88,3.82,3.82,0,0,1-.73-1.35,6.65,6.65,0,0,1-.27-1.71,4.85,4.85,0,0,1,.28-1.7,4.17,4.17,0,0,1,.79-1.34,3.66,3.66,0,0,1,1.21-.88,3.7,3.7,0,0,1,1.53-.31,3.29,3.29,0,0,1,1.8.45,3.58,3.58,0,0,1,1.15,1.14,4.46,4.46,0,0,1,.6,1.5A6.57,6.57,0,0,1,225,45.3H219a3.33,3.33,0,0,0,.12,1,2.33,2.33,0,0,0,.46.85,2.29,2.29,0,0,0,.8.59,2.74,2.74,0,0,0,1.15.22,2.33,2.33,0,0,0,1.39-.39,1.87,1.87,0,0,0,.71-1.2h1.32A3.24,3.24,0,0,1,223.73,48.44Zm-.33-5.21a2.21,2.21,0,0,0-.48-.73,2.29,2.29,0,0,0-.73-.49,2.25,2.25,0,0,0-.92-.18,2.34,2.34,0,0,0-.93.18,2.14,2.14,0,0,0-.72.49,2.77,2.77,0,0,0-.47.73,3,3,0,0,0-.2.89h4.67A3,3,0,0,0,223.4,43.23Z" transform="translate(-13.51 -15.57)" fill="#2376bc"/><path d="M227.68,40.84v1.29h0a2.79,2.79,0,0,1,2.63-1.48,3.48,3.48,0,0,1,1.34.22,2.2,2.2,0,0,1,.86.61,2.32,2.32,0,0,1,.47.94,5,5,0,0,1,.13,1.2V49h-1.33v-5.5a1.52,1.52,0,0,0-1.65-1.63,2.61,2.61,0,0,0-1.06.19,1.93,1.93,0,0,0-.75.53,2.29,2.29,0,0,0-.45.81,3.29,3.29,0,0,0-.15,1V49h-1.33V40.84Z" transform="translate(-13.51 -15.57)" fill="#2376bc"/><path d="M238.65,40.84V42H237v5a1.34,1.34,0,0,0,0,.38.48.48,0,0,0,.15.22.75.75,0,0,0,.31.1l.51,0h.61V49h-1a4.59,4.59,0,0,1-.89-.07,1.37,1.37,0,0,1-.6-.26,1.1,1.1,0,0,1-.33-.53,2.92,2.92,0,0,1-.11-.92V42h-1.39V40.84h1.39V38.4H237v2.44Z" transform="translate(-13.51 -15.57)" fill="#2376bc"/><path d="M146.77,57.92a5.51,5.51,0,0,1,1-1.88,4.93,4.93,0,0,1,1.68-1.3,5.83,5.83,0,0,1,4.68,0,5.07,5.07,0,0,1,1.69,1.3,5.68,5.68,0,0,1,1,1.88,7.32,7.32,0,0,1,0,4.41,5.59,5.59,0,0,1-1,1.88,5.07,5.07,0,0,1-1.69,1.3,5.94,5.94,0,0,1-4.68,0,4.93,4.93,0,0,1-1.68-1.3,5.42,5.42,0,0,1-1-1.88,7.32,7.32,0,0,1,0-4.41Zm1.37,3.88a4.68,4.68,0,0,0,.69,1.48A3.53,3.53,0,0,0,150,64.34a4.07,4.07,0,0,0,3.52,0,3.44,3.44,0,0,0,1.21-1.06,4.28,4.28,0,0,0,.69-1.48,6.49,6.49,0,0,0,0-3.35,4.28,4.28,0,0,0-.69-1.48,3.44,3.44,0,0,0-1.21-1.06,4.07,4.07,0,0,0-3.52,0A3.53,3.53,0,0,0,148.83,57a4.68,4.68,0,0,0-.69,1.48,6.49,6.49,0,0,0,0,3.35Z" transform="translate(-13.51 -15.57)" fill="#2376bc"/><path d="M160,57.61v1.71h0a3.62,3.62,0,0,1,1.19-1.46,3,3,0,0,1,1.79-.44v1.42a3.75,3.75,0,0,0-1.37.22,2.15,2.15,0,0,0-.91.64,2.61,2.61,0,0,0-.5,1,5.31,5.31,0,0,0-.16,1.39v3.61h-1.33V57.61Z" transform="translate(-13.51 -15.57)" fill="#2376bc"/><path d="M169.7,68a3.72,3.72,0,0,1-2.86,1,5.22,5.22,0,0,1-1.16-.13,3.45,3.45,0,0,1-1.07-.41,2.53,2.53,0,0,1-.79-.74,2.05,2.05,0,0,1-.34-1.11h1.33a1,1,0,0,0,.23.61,1.5,1.5,0,0,0,.52.41,2.3,2.3,0,0,0,.67.23,3.37,3.37,0,0,0,.69.07,2.46,2.46,0,0,0,1.11-.23,2,2,0,0,0,.76-.63,2.73,2.73,0,0,0,.43-1,5.36,5.36,0,0,0,.13-1.24v-.54h0a2.3,2.3,0,0,1-1,1.11,3.36,3.36,0,0,1-1.49.35,3.58,3.58,0,0,1-1.59-.33,3.29,3.29,0,0,1-1.13-.89,3.75,3.75,0,0,1-.68-1.3,5.44,5.44,0,0,1-.23-1.58,6,6,0,0,1,.19-1.48,4.28,4.28,0,0,1,.63-1.39,3.49,3.49,0,0,1,1.16-1,3.69,3.69,0,0,1,1.78-.4,3.06,3.06,0,0,1,1.41.34,2.46,2.46,0,0,1,1,1h0V57.61h1.26V65A4.33,4.33,0,0,1,169.7,68ZM168,64.37a2.16,2.16,0,0,0,.75-.72,3.26,3.26,0,0,0,.42-1,5.52,5.52,0,0,0,.13-1.13,4.08,4.08,0,0,0-.13-1,2.73,2.73,0,0,0-.4-.94,2.07,2.07,0,0,0-.71-.67A2.23,2.23,0,0,0,167,58.6a2.32,2.32,0,0,0-1.1.24,2.27,2.27,0,0,0-.75.66,2.78,2.78,0,0,0-.42.94,4.56,4.56,0,0,0-.13,1.11,5.07,5.07,0,0,0,.11,1.1,3,3,0,0,0,.37,1,2.13,2.13,0,0,0,.71.72,2,2,0,0,0,1.1.28A2.09,2.09,0,0,0,168,64.37Z" transform="translate(-13.51 -15.57)" fill="#2376bc"/><path d="M179.83,65.7a1.85,1.85,0,0,1-1,.21,1.16,1.16,0,0,1-.82-.29,1.25,1.25,0,0,1-.31-1,3.25,3.25,0,0,1-1.28,1,4.31,4.31,0,0,1-1.58.29,4.36,4.36,0,0,1-1-.13,2.34,2.34,0,0,1-.86-.39,1.87,1.87,0,0,1-.57-.7,2.4,2.4,0,0,1-.21-1,2.37,2.37,0,0,1,.23-1.13,2,2,0,0,1,.62-.71,3.11,3.11,0,0,1,.88-.42c.33-.09.67-.17,1-.23S175.66,61,176,61a5.92,5.92,0,0,0,.87-.16,1.4,1.4,0,0,0,.6-.29.78.78,0,0,0,.22-.58,1.29,1.29,0,0,0-.17-.7,1.1,1.1,0,0,0-.42-.41,1.59,1.59,0,0,0-.58-.19,4.72,4.72,0,0,0-.64,0,2.86,2.86,0,0,0-1.41.32,1.39,1.39,0,0,0-.62,1.22h-1.33a2.83,2.83,0,0,1,.31-1.27,2.28,2.28,0,0,1,.76-.84,3.14,3.14,0,0,1,1.07-.47,6,6,0,0,1,1.3-.14,7.88,7.88,0,0,1,1.09.08,2.83,2.83,0,0,1,1,.32,1.85,1.85,0,0,1,.71.68,2.2,2.2,0,0,1,.27,1.15v4.17a3.74,3.74,0,0,0,.05.69c0,.15.16.22.37.22a1.69,1.69,0,0,0,.41-.06Zm-2.17-4.16a1.66,1.66,0,0,1-.66.27,7.53,7.53,0,0,1-.85.14l-.91.13a3.2,3.2,0,0,0-.81.23,1.39,1.39,0,0,0-.59.44,1.2,1.2,0,0,0-.23.79,1,1,0,0,0,.48.92,1.45,1.45,0,0,0,.49.21,2.91,2.91,0,0,0,.6.06,3.15,3.15,0,0,0,1.13-.18,2.37,2.37,0,0,0,.77-.45,1.85,1.85,0,0,0,.44-.6,1.38,1.38,0,0,0,.14-.6Z" transform="translate(-13.51 -15.57)" fill="#2376bc"/><path d="M182.34,57.61V58.9h0A2.81,2.81,0,0,1,185,57.42a3.68,3.68,0,0,1,1.34.22,2.12,2.12,0,0,1,.86.62,2.28,2.28,0,0,1,.47.93,5,5,0,0,1,.13,1.2v5.34h-1.33V60.24A1.62,1.62,0,0,0,186,59a1.66,1.66,0,0,0-1.21-.44,2.61,2.61,0,0,0-1.06.19,2,2,0,0,0-.75.53,2.29,2.29,0,0,0-.45.81,3.31,3.31,0,0,0-.15,1v4.58h-1.33V57.61Z" transform="translate(-13.51 -15.57)" fill="#2376bc"/><path d="M189.92,56.15V54.52h1.33v1.63Zm1.33,1.46v8.12h-1.33V57.61Z" transform="translate(-13.51 -15.57)" fill="#2376bc"/><path d="M197.58,58.79H193V57.61h6.31v.91l-5,6h5.18v1.17h-6.85v-1Z" transform="translate(-13.51 -15.57)" fill="#2376bc"/><path d="M208.09,65.7a1.85,1.85,0,0,1-1,.21,1.16,1.16,0,0,1-.82-.29,1.29,1.29,0,0,1-.31-1,3.18,3.18,0,0,1-1.28,1,4.27,4.27,0,0,1-1.58.29,4.42,4.42,0,0,1-1-.13,2.34,2.34,0,0,1-.86-.39,1.87,1.87,0,0,1-.57-.7,2.4,2.4,0,0,1-.21-1,2.49,2.49,0,0,1,.23-1.13,2.14,2.14,0,0,1,.62-.71,3.11,3.11,0,0,1,.88-.42c.33-.09.67-.17,1-.23s.71-.13,1-.17a5.92,5.92,0,0,0,.87-.16,1.35,1.35,0,0,0,.6-.29.75.75,0,0,0,.22-.58,1.3,1.3,0,0,0-.16-.7,1.12,1.12,0,0,0-.43-.41,1.53,1.53,0,0,0-.58-.19,4.6,4.6,0,0,0-.64,0,2.88,2.88,0,0,0-1.41.32,1.36,1.36,0,0,0-.61,1.22h-1.34a2.83,2.83,0,0,1,.32-1.27,2.26,2.26,0,0,1,.75-.84,3.11,3.11,0,0,1,1.08-.47,5.86,5.86,0,0,1,1.29-.14,7.88,7.88,0,0,1,1.09.08,2.88,2.88,0,0,1,1,.32,1.83,1.83,0,0,1,.7.68,2.2,2.2,0,0,1,.27,1.15v4.17a2.9,2.9,0,0,0,.06.69c0,.15.16.22.36.22a1.62,1.62,0,0,0,.41-.06Zm-2.16-4.16a1.66,1.66,0,0,1-.66.27,7.71,7.71,0,0,1-.86.14l-.9.13a3.16,3.16,0,0,0-.82.23,1.46,1.46,0,0,0-.59.44,1.26,1.26,0,0,0-.23.79,1.11,1.11,0,0,0,.14.56,1,1,0,0,0,.34.36,1.51,1.51,0,0,0,.5.21,2.74,2.74,0,0,0,.59.06,3.15,3.15,0,0,0,1.13-.18,2.37,2.37,0,0,0,.77-.45,1.85,1.85,0,0,0,.44-.6,1.4,1.4,0,0,0,.15-.6Z" transform="translate(-13.51 -15.57)" fill="#2376bc"/><path d="M212.82,57.61v1.18H211.2v5a1.76,1.76,0,0,0,0,.38.44.44,0,0,0,.15.22.67.67,0,0,0,.31.1,3.49,3.49,0,0,0,.51,0h.61v1.17h-1a4.66,4.66,0,0,1-.89-.07,1.19,1.19,0,0,1-.59-.26,1,1,0,0,1-.34-.53,3.18,3.18,0,0,1-.11-.91V58.79h-1.38V57.61h1.38V55.18h1.33v2.43Z" transform="translate(-13.51 -15.57)" fill="#2376bc"/><path d="M214.39,56.15V54.52h1.34v1.63Zm1.34,1.46v8.12h-1.34V57.61Z" transform="translate(-13.51 -15.57)" fill="#2376bc"/><path d="M217.63,60a3.86,3.86,0,0,1,.75-1.35,3.53,3.53,0,0,1,1.24-.91,4.57,4.57,0,0,1,3.41,0,3.59,3.59,0,0,1,1.23.91A3.71,3.71,0,0,1,225,60a5.7,5.7,0,0,1,0,3.34,3.75,3.75,0,0,1-.75,1.34,3.54,3.54,0,0,1-1.23.89,4.57,4.57,0,0,1-3.41,0,3.48,3.48,0,0,1-1.24-.89,3.91,3.91,0,0,1-.75-1.34,5.7,5.7,0,0,1,0-3.34ZM219,63a2.79,2.79,0,0,0,.54,1,2.36,2.36,0,0,0,1.79.79,2.32,2.32,0,0,0,1-.2,2.35,2.35,0,0,0,.81-.59,2.79,2.79,0,0,0,.54-1,4.39,4.39,0,0,0,0-2.62,2.84,2.84,0,0,0-.54-1,2.23,2.23,0,0,0-.81-.59,2.33,2.33,0,0,0-1-.21,2.37,2.37,0,0,0-1,.21,2.23,2.23,0,0,0-.81.59,2.84,2.84,0,0,0-.54,1A4.39,4.39,0,0,0,219,63Z" transform="translate(-13.51 -15.57)" fill="#2376bc"/><path d="M228.11,57.61V58.9h0a2.81,2.81,0,0,1,2.64-1.48,3.62,3.62,0,0,1,1.33.22,2.16,2.16,0,0,1,.87.62,2.26,2.26,0,0,1,.46.93,4.94,4.94,0,0,1,.14,1.2v5.34h-1.34V60.24a1.62,1.62,0,0,0-.44-1.2,1.65,1.65,0,0,0-1.21-.44,2.64,2.64,0,0,0-1.06.19,2,2,0,0,0-.75.53,2.27,2.27,0,0,0-.44.81,3.31,3.31,0,0,0-.15,1v4.58h-1.34V57.61Z" transform="translate(-13.51 -15.57)" fill="#2376bc"/><path d="M238.37,62.76a1.56,1.56,0,1,1-1.55-1.51A1.52,1.52,0,0,1,238.37,62.76Zm-2.72,0A1.17,1.17,0,0,0,236.83,64a1.21,1.21,0,0,0,0-2.41A1.17,1.17,0,0,0,235.65,62.76Zm.93.8h-.35V62.05a2.82,2.82,0,0,1,.58,0,1,1,0,0,1,.52.11.39.39,0,0,1,.15.33.38.38,0,0,1-.31.35v0a.47.47,0,0,1,.28.37,1,1,0,0,0,.11.38h-.38a1.13,1.13,0,0,1-.12-.37c0-.17-.12-.24-.32-.24h-.16Zm0-.86h.16c.2,0,.35-.06.35-.22s-.1-.23-.32-.23l-.19,0Z" transform="translate(-13.51 -15.57)" fill="#2078b2"/><path d="M130.76,47.86h-.62v-.23h1.53v.23H131V49.7h-.28Z" transform="translate(-13.51 -15.57)" fill="#010101"/><path d="M133.64,48.8c0-.29,0-.64,0-.9h0c-.07.24-.15.5-.26.79l-.36,1h-.21l-.33-1c-.1-.3-.18-.56-.24-.81h0c0,.26,0,.61,0,.92l-.05.88h-.26l.15-2.07h.34l.35,1a6.5,6.5,0,0,1,.21.69h0c0-.21.13-.43.22-.69l.37-1h.34L134,49.7h-.27Z" transform="translate(-13.51 -15.57)" fill="#010101"/></svg>