<?xml version="1.0" encoding="UTF-8" standalone="no"?>
<svg
   id="ti-dlp-logo-hz-white"
   viewBox="0 0 385 36"
   version="1.1"
   sodipodi:docname="Texas_Instruments_Digital_Light_Processing_Logo.svg"
   width="385"
   height="36"
   inkscape:version="1.2-dev (9ee32be, 2021-06-19)"
   xmlns:inkscape="http://www.inkscape.org/namespaces/inkscape"
   xmlns:sodipodi="http://sodipodi.sourceforge.net/DTD/sodipodi-0.dtd"
   xmlns="http://www.w3.org/2000/svg"
   xmlns:svg="http://www.w3.org/2000/svg">
  <defs
     id="defs873" />
  <sodipodi:namedview
     id="namedview871"
     pagecolor="#ffffff"
     bordercolor="#666666"
     borderopacity="1.0"
     inkscape:pageshadow="2"
     inkscape:pageopacity="0.0"
     inkscape:pagecheckerboard="0"
     showgrid="false"
     inkscape:zoom="0.6968599"
     inkscape:cx="376.68977"
     inkscape:cy="154.26343"
     inkscape:window-width="1316"
     inkscape:window-height="869"
     inkscape:window-x="0"
     inkscape:window-y="38"
     inkscape:window-maximized="0"
     inkscape:current-layer="ti-dlp-logo-hz-white" />
  <g
     id="g1153"
     transform="matrix(0.26493256,0,0,0.26894891,-25.046722,-30.410053)">
    <path
       d="m 486.18,204.09 -17.92,-47.01 h -12.24 l -17.17,43.79 c -1.83,4.55 -3.5,6.69 -5.31,7.93 -1.42,-0.9 -2.72,-2.27 -4.45,-4.71 L 414,182.69 426.2,165.45 c 3.22,-4.61 5.9,-5.58 9.12,-6.55 v -1.83 h -19.64 v 1.83 c 4.08,0.32 5.26,2.57 2.9,6.12 l -8.51,12.61 -7.69,-11.54 c -3.22,-4.72 -0.86,-6.65 2.68,-7.19 v -1.83 h -26.08 v 1.83 c 3.65,0.97 5.47,2.04 8.48,6.33 l 13.74,19.43 -12.99,18.46 c -3.97,5.58 -6.33,6.33 -9.98,7.19 v 1.82 h 20.82 v -1.82 c -3.97,-0.75 -5.69,-2.26 -3,-6.44 l 9.1,-14.22 9.58,13.79 c 3.54,5.05 -0.22,6.44 -3.44,6.87 v 1.82 h 37.67 v -1.82 c -3.76,-0.64 -5.47,-1.93 -3.54,-7.09 l 2.46,-6.44 h 22.55 l 2.36,6.44 c 1.5,4.18 0.97,6.44 -3.44,7.09 v 1.82 h 23.18 v -1.82 c -2.68,-0.86 -5.15,-3.11 -6.33,-6.23 z m -36,-13.42 9.16,-24.04 8.81,24.04 h -17.98 z"
       fill="#fff"
       id="path824"
       style="fill:#000000;fill-opacity:1" />
    <path
       d="m 519.33,178.76 -9.98,-2.25 c -5.69,-1.29 -7.51,-2.9 -7.51,-6.44 0,-4.08 3.22,-6.76 10.3,-6.76 7.94,0 14.17,3.76 18.67,8.91 l 1.4,-0.97 -4.08,-14.17 h -2.57 c 0,1.18 -0.53,2.47 -1.61,2.47 -2.36,-1.29 -6.01,-3.33 -12.23,-3.33 -11.16,0 -19.85,5.8 -19.85,16.31 0,8.05 4.83,13.09 15.35,15.45 l 9.44,2.15 c 6.33,1.39 8.58,3.64 8.58,7.62 0,5.47 -4.39,8.37 -11.59,8.37 -10.09,0 -16.53,-5.26 -21.78,-11.38 l -1.4,0.96 4.4,16.42 h 2.69 c 0,-0.86 0.86,-2.68 1.93,-2.68 2.47,1.18 6.65,3.65 14.38,3.65 12.99,0 22.11,-6.44 22.11,-17.39 0,-10.3 -5.69,-14.49 -16.64,-16.96 z"
       fill="#fff"
       id="path826"
       style="fill:#000000;fill-opacity:1" />
    <path
       d="M 315.33,203.12 V 151.5 c 0,-3.11 0.97,-3.86 5.05,-3.86 11.16,0 16.63,0.21 20.61,6.44 l 1.39,-0.86 -4.5,-13.2 h -58.06 l -4.51,13.2 1.4,0.86 c 4.83,-6.11 8.59,-6.44 20.71,-6.44 4.08,0 5.04,0.75 5.04,3.86 v 51.62 c 0,5.47 -2.79,6.33 -5.47,7.19 v 1.82 h 23.83 v -1.82 c -2.68,-0.86 -5.48,-1.72 -5.48,-7.19 z"
       fill="#fff"
       id="path828"
       style="fill:#000000;fill-opacity:1" />
    <path
       d="m 378.32,198.29 c -4.51,5.9 -9.23,7.3 -15.45,7.3 h -11.59 c -3.65,0 -4.51,-0.11 -4.51,-3.66 v -15.45 h 14.06 c 5.48,0 6.33,1.29 7.19,4.51 h 2.14 v -15.45 h -2.14 c -0.86,3.22 -1.72,4.62 -7.19,4.62 h -14.06 v -12.98 c 0,-2.68 0.86,-3.54 4.51,-3.54 h 9.87 c 6.33,0 9.66,1.61 14.49,6.76 l 1.39,-0.97 -4.51,-12.34 h -42.93 v 1.83 c 3.54,0.97 5.37,1.82 5.37,7.19 v 37.03 c 0,5.47 -1.83,6.33 -5.37,7.19 v 1.82 h 44.97 l 5.15,-12.88 -1.4,-0.96 z"
       fill="#fff"
       id="path830"
       style="fill:#000000;fill-opacity:1" />
    <path
       d="m 851.38,158.91 c 2.79,0.64 5.47,1.82 5.47,7.19 v 27.16 c 0,9.01 -3.43,12.99 -13.63,12.99 -10.84,0 -14.7,-3.98 -14.7,-12.99 V 166.1 c 0,-5.36 2.04,-6.54 5.36,-7.19 v -1.82 h -22.53 v 1.82 c 3.33,0.54 5.47,1.82 5.47,7.19 v 28.02 c 0,14.7 12.77,19 24.79,19 13.42,0 22.97,-4.51 22.97,-19.86 V 166.1 c 0,-5.36 1.61,-6.44 4.94,-7.19 v -1.82 h -18.14 z"
       fill="#fff"
       id="path832"
       style="fill:#000000;fill-opacity:1" />
    <path
       d="m 802.55,195.83 c -3.33,-5.37 -6.76,-7.73 -10.73,-8.7 v -0.32 c 9.44,-1.5 14.81,-6.44 14.81,-14.49 0,-10.73 -8.59,-15.24 -22.43,-15.24 h -28.22 v 1.82 c 3.54,0.96 5.36,1.82 5.36,7.19 v 37.03 c 0,5.47 -1.82,6.33 -5.36,7.19 v 1.82 h 23.07 v -1.82 c -3.33,-0.86 -5.58,-1.72 -5.58,-7.19 v -13.74 h 5.69 c 6.65,0 7.62,2.68 11.91,11.7 3.54,7.41 8.27,12.02 17.17,12.02 4.51,0 6.33,-0.86 8.16,-1.83 v -1.5 c -7.19,-1.07 -9.56,-6.97 -13.84,-13.95 z m -19.64,-12.88 h -9.45 v -14.6 c 0,-3.54 0.86,-4.51 3.55,-4.51 h 6.12 c 6.65,0 10.51,2.57 10.51,9.02 0,6.76 -4.4,10.09 -10.73,10.09 z"
       fill="#fff"
       id="path834"
       style="fill:#000000;fill-opacity:1" />
    <path
       d="m 687.06,178.77 -9.98,-2.26 c -5.69,-1.29 -7.52,-2.9 -7.52,-6.44 0,-4.08 3.22,-6.76 10.3,-6.76 7.94,0 14.17,3.76 18.68,8.91 l 1.39,-0.97 -4.08,-14.17 h -2.58 c 0,1.18 -0.54,2.47 -1.61,2.47 -2.36,-1.29 -6.01,-3.33 -12.24,-3.33 -11.16,0 -19.86,5.8 -19.86,16.31 0,8.05 4.84,13.09 15.35,15.45 l 9.44,2.15 c 6.34,1.4 8.59,3.65 8.59,7.62 0,5.47 -4.4,8.37 -11.59,8.37 -10.09,0 -16.53,-5.26 -21.79,-11.37 l -1.39,0.96 4.4,16.42 h 2.69 c 0,-0.86 0.85,-2.69 1.93,-2.69 2.47,1.18 6.65,3.65 14.39,3.65 12.99,0 22.11,-6.44 22.11,-17.39 0,-10.3 -5.69,-14.49 -16.64,-16.96 z"
       fill="#fff"
       id="path836"
       style="fill:#000000;fill-opacity:1" />
    <path
       d="m 570.73,141.85 c 3.33,0.97 6.01,1.82 6.01,7.19 v 54.1 c 0,5.47 -2.68,6.33 -6.01,7.19 v 1.82 h 24.9 v -1.82 c -3.33,-0.86 -6.01,-1.72 -6.01,-7.19 v -54.1 c 0,-5.36 2.69,-6.22 6.01,-7.19 v -1.82 h -24.9 z"
       fill="#fff"
       id="path838"
       style="fill:#000000;fill-opacity:1" />
    <path
       d="m 639.09,158.91 c 3.22,0.96 5.05,1.82 5.05,7.19 v 22.54 h -0.32 l -27.69,-31.55 h -16.21 v 1.82 c 3.22,1.39 5.37,2.47 5.37,7.19 v 37.03 c 0,5.15 -1.83,6.33 -5.37,7.19 v 1.82 h 18.36 v -1.82 c -2.9,-0.86 -5.69,-2.04 -5.69,-7.19 v -31.99 h 0.32 l 36.6,41.75 h 1.93 v -46.8 c 0,-5.36 2.69,-6.23 4.84,-7.19 v -1.82 h -17.17 v 1.82 z"
       fill="#fff"
       id="path840"
       style="fill:#000000;fill-opacity:1" />
    <path
       d="m 706.92,157.08 -4.4,14.17 1.4,0.97 c 5.9,-7.83 7.52,-8.59 15.35,-8.59 2.68,0 3.54,0.22 3.54,3.54 v 35.96 c 0,5.47 -1.61,6.33 -6.01,7.19 v 1.82 h 23.62 v -1.82 c -4.3,-0.86 -6.02,-1.72 -6.02,-7.19 v -35.96 c 0,-3.33 0.86,-3.54 3.54,-3.54 7.83,0 9.87,0.75 15.77,8.59 l 1.4,-0.97 -4.4,-14.17 z"
       fill="#fff"
       id="path842"
       style="fill:#000000;fill-opacity:1" />
    <path
       d="m 1060.34,157.08 -4.4,14.17 1.39,0.97 c 5.9,-7.83 7.52,-8.59 15.35,-8.59 2.68,0 3.54,0.22 3.54,3.54 v 35.96 c 0,5.47 -1.61,6.33 -6.01,7.19 v 1.82 h 23.62 v -1.82 c -4.3,-0.86 -6.02,-1.72 -6.02,-7.19 v -35.96 c 0,-3.33 0.86,-3.54 3.54,-3.54 7.83,0 9.88,0.75 15.78,8.59 l 1.39,-0.97 -4.4,-14.17 h -43.79 z"
       fill="#fff"
       id="path844"
       style="fill:#000000;fill-opacity:1" />
    <path
       d="m 1138.9,178.77 -9.98,-2.26 c -5.69,-1.29 -7.51,-2.9 -7.51,-6.44 0,-4.08 3.22,-6.76 10.3,-6.76 7.94,0 14.17,3.76 18.68,8.91 l 1.4,-0.97 -4.08,-14.17 h -2.58 c 0,1.18 -0.54,2.47 -1.61,2.47 -2.36,-1.29 -6.01,-3.33 -12.24,-3.33 -11.16,0 -19.84,5.8 -19.84,16.31 0,8.05 4.83,13.09 15.34,15.45 l 9.45,2.15 c 6.33,1.4 8.59,3.65 8.59,7.62 0,5.47 -4.4,8.37 -11.6,8.37 -10.09,0 -16.53,-5.26 -21.78,-11.37 l -1.4,0.96 4.4,16.42 h 2.69 c 0,-0.86 0.86,-2.69 1.93,-2.69 2.47,1.18 6.66,3.65 14.38,3.65 12.99,0 22.12,-6.44 22.12,-17.39 0,-10.3 -5.69,-14.49 -16.64,-16.96 z"
       fill="#fff"
       id="path846"
       style="fill:#000000;fill-opacity:1" />
    <path
       d="m 1038.13,158.91 c 3.22,0.96 5.04,1.82 5.04,7.19 v 22.54 h -0.32 l -27.69,-31.55 h -16.21 v 1.82 c 3.22,1.39 5.37,2.47 5.37,7.19 v 37.03 c 0,5.15 -1.83,6.33 -5.37,7.19 v 1.82 h 18.35 v -1.82 c -2.9,-0.86 -5.69,-2.04 -5.69,-7.19 v -31.99 h 0.32 l 36.6,41.75 h 1.94 v -46.8 c 0,-5.36 2.69,-6.23 4.83,-7.19 v -1.82 h -17.17 v 1.82 z"
       fill="#fff"
       id="path848"
       style="fill:#000000;fill-opacity:1" />
    <path
       d="m 908.47,192.83 -15.88,-35.74 h -19.74 v 1.82 c 3.54,0.96 5.36,1.82 5.36,7.19 v 37.03 c 0,4.83 -2.04,6.11 -5.36,7.19 v 1.82 h 17.49 v -1.82 c -3.65,-0.96 -5.26,-2.36 -5.26,-7.19 V 168.56 L 904.93,213 h 1.51 l 19.32,-44.44 v 34.57 c 0,5.47 -2.36,6.44 -5.05,7.19 v 1.82 h 22.54 v -1.82 c -3.54,-0.86 -5.37,-1.72 -5.37,-7.19 V 166.1 c 0,-5.36 1.82,-6.23 5.37,-7.19 v -1.82 h -19.43 z"
       fill="#fff"
       id="path850"
       style="fill:#000000;fill-opacity:1" />
    <path
       d="m 980.81,205.6 h -11.59 c -3.66,0 -4.51,-0.11 -4.51,-3.65 V 186.5 h 14.06 c 5.48,0 6.33,1.28 7.19,4.51 h 2.15 v -15.46 h -2.15 c -0.86,3.22 -1.72,4.61 -7.19,4.61 h -14.06 v -12.98 c 0,-2.68 0.86,-3.54 4.51,-3.54 h 9.87 c 6.33,0 9.65,1.61 14.49,6.76 l 1.39,-0.97 -4.51,-12.34 h -42.93 v 1.82 c 3.54,0.96 5.37,1.82 5.37,7.19 v 37.03 c 0,5.47 -1.83,6.33 -5.37,7.19 v 1.82 h 44.97 l 5.15,-12.88 -1.39,-0.97 c -4.51,5.91 -9.23,7.3 -15.46,7.3 z"
       fill="#fff"
       id="path852"
       style="fill:#000000;fill-opacity:1" />
    <path
       d="m 222.81,156.49 v -16.43 h -26.35 l -3.32,16.58 h 9.48 l -3.04,15.24 h -9.48 l -3.29,16.51 c -0.25,1.12 -0.44,1.93 -0.56,2.71 -0.77,5.05 1.43,4.81 8.53,4.81 l -3.24,16.24 h -12.4 c -11.73,0 -21.26,-0.12 -18.78,-12.11 0.39,-1.87 0.86,-3.69 1.2,-5.48 l 4.43,-22.68 h -9.11 l 3.05,-15.24 h 9.11 l 3.32,-16.58 h -8.53 v -24.99 h -31.55 v 50.84 H 94.54 c 0.93,13.18 12.6,15.1 16.85,24.46 2.93,6.45 5.49,17.8 14.05,17.9 6.55,0.08 6.55,-8.47 14.98,-8.47 8.43,0 12.17,16 19.66,29.18 5.62,10.35 14.95,17.29 23.41,17.88 6.94,0.48 10.3,-1.88 10.3,-1.88 -1.87,-3.77 -2.81,-7.53 -2.81,-13.18 0,-8.48 6.56,-16.94 14.05,-22.59 10.3,-7.54 21.54,-10.37 25.28,-11.3 v -26.36 c 0,0 -7.49,-4.01 -7.49,-15.07 z"
       fill="#fff"
       id="path854"
       style="fill:#000000;fill-opacity:1" />
    <polygon
       points="179.84,195.9 190.92,140.06 178.15,140.06 167.08,195.9 "
       fill="#fff"
       id="polygon856"
       style="fill:#000000;fill-opacity:1" />
    <polygon
       points="194.34,122.41 181.58,122.41 179.13,134.73 191.9,134.73 "
       fill="#fff"
       id="polygon858"
       style="fill:#000000;fill-opacity:1" />
    <path
       d="m 1344.55,233.82 c -22.11,-3.38 -41.2,-20.58 -46.87,-42.18 -9.35,-33.89 13.9,-68.84 48.85,-73.11 17,-2.07 33.81,2.89 47.87,13.1 -7.62,-8.89 -18.62,-15.07 -30.44,-17.37 -30.64,-6.03 -62.06,13.14 -71.18,42.94 -13.94,43.99 23.38,88.04 69.05,81.16 11.71,-1.85 23,-7.46 31.12,-16.09 0,0 -0.18,-0.2 -0.18,-0.2 -14.24,9.89 -31.29,14.39 -48.22,11.75 z"
       fill="#fff"
       id="path860"
       style="fill:#000000;fill-opacity:1" />
    <path
       d="m 1400.68,143.57 c -5.07,-2.9 -10.83,-4.35 -17.26,-4.35 h -22.51 v 73.15 h 22.66 c 6.4,-0.03 12.14,-1.51 17.23,-4.42 5.09,-2.91 9.03,-7.02 11.83,-12.31 2.8,-5.29 4.19,-11.34 4.19,-18.14 v -3.37 c 0,-6.8 -1.42,-12.87 -4.27,-18.21 -2.85,-5.34 -6.81,-9.46 -11.88,-12.36 z m 0.88,34.38 c -0.07,7.17 -1.66,12.68 -4.77,16.53 -3.11,3.85 -7.62,5.78 -13.51,5.78 H 1376 v -48.83 h 7.44 c 5.93,0 10.43,1.92 13.51,5.75 3.08,3.84 4.62,9.47 4.62,16.9 v 3.87 z"
       fill="#fff"
       id="path862"
       style="fill:#000000;fill-opacity:1" />
    <polygon
       points="1431.9,212.37 1478.97,212.37 1478.97,200.26 1446.97,200.26 1446.97,139.22 1431.9,139.22 "
       fill="#fff"
       id="polygon864"
       style="fill:#000000;fill-opacity:1" />
    <path
       d="m 1534.75,142.24 c -4.17,-2.01 -9,-3.01 -14.49,-3.01 h -28.53 v 73.15 h 15.07 v -25.77 h 13.21 c 8.67,0 15.46,-2.07 20.37,-6.2 4.91,-4.14 7.36,-9.79 7.36,-16.96 0,-4.72 -1.12,-8.93 -3.37,-12.63 -2.24,-3.7 -5.45,-6.56 -9.62,-8.57 z m -5.37,29.33 c -2.09,1.88 -5.13,2.81 -9.12,2.81 h -13.46 v -22.96 h 13.82 c 3.72,0.07 6.63,1.21 8.74,3.42 2.11,2.21 3.17,5.11 3.17,8.69 0,3.58 -1.05,6.16 -3.14,8.04 z"
       fill="#fff"
       id="path866"
       style="fill:#000000;fill-opacity:1" />
    <rect
       x="1222.54"
       y="113.07"
       width="4"
       height="126"
       fill="#fff"
       id="rect868"
       style="fill:#000000;fill-opacity:1" />
  </g>
</svg>
