<?xml version="1.0" encoding="UTF-8" standalone="no"?>
<svg
   width="177.084"
   height="41.008"
   viewBox="0 0 177.084 41.008"
   version="1.1"
   id="svg1262"
   sodipodi:docname="university-press-logo.svg"
   inkscape:version="1.2-dev (9ee32be, 2021-06-19)"
   xmlns:inkscape="http://www.inkscape.org/namespaces/inkscape"
   xmlns:sodipodi="http://sodipodi.sourceforge.net/DTD/sodipodi-0.dtd"
   xmlns="http://www.w3.org/2000/svg"
   xmlns:svg="http://www.w3.org/2000/svg">
  <sodipodi:namedview
     id="namedview1264"
     pagecolor="#ffffff"
     bordercolor="#666666"
     borderopacity="1.0"
     inkscape:pageshadow="2"
     inkscape:pageopacity="0.0"
     inkscape:pagecheckerboard="0"
     showgrid="false"
     inkscape:zoom="6.4037406"
     inkscape:cx="114.77667"
     inkscape:cy="4.5286032"
     inkscape:window-width="1879"
     inkscape:window-height="1328"
     inkscape:window-x="0"
     inkscape:window-y="25"
     inkscape:window-maximized="0"
     inkscape:current-layer="svg1262" />
  <defs
     id="defs1225">
    <clipPath
       id="clip-path">
      <path
         id="Path_34"
         data-name="Path 34"
         d="M40-19.5H217.084V-60.5H40Z"
         fill="none" />
    </clipPath>
    <clipPath
       id="clip-path-9">
      <path
         id="Path_34-4"
         data-name="Path 34"
         d="M40-19.5H217.084V-60.5H40Z"
         fill="none" />
    </clipPath>
  </defs>
  <g
     id="Group_31"
     data-name="Group 31"
     transform="translate(-40 60.504)"
     clip-path="url(#clip-path)"
     style="fill:#323273;fill-opacity:1">
    <g
       id="Group_9"
       data-name="Group 9"
       transform="translate(73.06 -38.03)"
       style="fill:#323273;fill-opacity:1">
      <path
         id="Path_10"
         data-name="Path 10"
         d="M0,0Q-.093.593-.238,1.166A33.834,33.834,0,0,0,7.525-5.762,20.325,20.325,0,0,0,6.8-8.535,26.714,26.714,0,0,1,0,0"
         fill="#fff"
         style="fill:#323273;fill-opacity:1" />
    </g>
    <g
       id="Group_10"
       data-name="Group 10"
       transform="translate(73.209 -40.316)"
       style="fill:#323273;fill-opacity:1">
      <path
         id="Path_11"
         data-name="Path 11"
         d="M0,0A32.427,32.427,0,0,0,5.64-8.72a20.436,20.436,0,0,0-1.48-2.541A26.755,26.755,0,0,1-.091-1.248C-.041-.838-.01-.421,0,0"
         fill="#fff"
         style="fill:#323273;fill-opacity:1" />
    </g>
    <g
       id="Group_11"
       data-name="Group 11"
       transform="translate(80.91 -40.975)"
       style="fill:#323273;fill-opacity:1">
      <path
         id="Path_12"
         data-name="Path 12"
         d="M0,0C-1.713,2.421-5.322,4.864-9.028,6.643q-.263.526-.57,1.023A34.683,34.683,0,0,0-.655,3.287,16.959,16.959,0,0,1-1.8,7.047a33.705,33.705,0,0,1-9.537,2.835,13.077,13.077,0,0,1-.964.889A29.891,29.891,0,0,0-2.985,9.254a15.6,15.6,0,0,1-2.876,3.309,31.648,31.648,0,0,1-8.484-.4q-.542.3-1.112.539A24.062,24.062,0,0,0-8.374,14.37a18.084,18.084,0,0,1-3.05,1.432,36.776,36.776,0,0,1-6.344-2.37,12.653,12.653,0,0,1-1.429.221,31.926,31.926,0,0,0,5.235,2.864,16.734,16.734,0,0,1-3.132.348c-.211,0-.421,0-.631,0a35.019,35.019,0,0,1-3.872-3.2,12.645,12.645,0,0,1-1.733-.277,33.323,33.323,0,0,0,3.164,3.223,16.149,16.149,0,0,1-3.514-1.057,28.949,28.949,0,0,1-1.831-2.885A12.69,12.69,0,0,1-27.1,11.84a28.188,28.188,0,0,0,1.348,2.634,15.766,15.766,0,0,1-2.967-2.362,18.931,18.931,0,0,1-1.148-2.56A12.7,12.7,0,0,1-33.19.967,12.746,12.746,0,0,1-20.444-11.778,12.752,12.752,0,0,1-8.281-2.856,30.045,30.045,0,0,0-5.718-13.278,20.619,20.619,0,0,0-7.834-15.19,24.172,24.172,0,0,1-8.5-4.977a15.934,15.934,0,0,0-1.39-2.315A31.657,31.657,0,0,0-10.93-17.2a20.324,20.324,0,0,0-2.612-1.151,25.032,25.032,0,0,1,2.659,9.81,18.009,18.009,0,0,0-1.959-1.926,36.219,36.219,0,0,0-4.106-8.782,20.594,20.594,0,0,0-2.683-.282,28.477,28.477,0,0,1,5.088,7.785,19.156,19.156,0,0,0-2.879-1.581,34.248,34.248,0,0,0-5.524-6.068,20.287,20.287,0,0,0-2.6.491,26.564,26.564,0,0,1,5.681,4.693,18.165,18.165,0,0,0-3.292-.62A35.4,35.4,0,0,0-28.3-17.981,20.27,20.27,0,0,0-30.8-16.728a13.046,13.046,0,0,1,5.029,1.851,17.244,17.244,0,0,0-2.962.424,29.036,29.036,0,0,0-3.983-1,20.521,20.521,0,0,0-2.209,1.923,13.327,13.327,0,0,1,3.3-.06,22.822,22.822,0,0,0-5.823,3.13A20.452,20.452,0,0,0-40.91.967,20.49,20.49,0,0,0-20.444,21.48,20.492,20.492,0,0,0,.023.967Q.023.481,0,0"
         fill="#fff"
         style="fill:#323273;fill-opacity:1" />
    </g>
    <g
       id="Group_18"
       data-name="Group 18"
       transform="translate(187.884 -28.442)"
       style="fill:#323273;fill-opacity:1">
      <path
         id="Path_19"
         data-name="Path 19"
         d="M0,0H-1.789V-2.644H0c1,0,1.641.427,1.641,1.311C1.641-.382,1.008,0,0,0M2.785-1.378c0-1.455-1.042-2.25-2.74-2.25H-2.909V3.088h1.12V.974h2A7.466,7.466,0,0,1,1.747,3.088H3.12A9.418,9.418,0,0,0,1.411.723a2.119,2.119,0,0,0,1.374-2.1"
         fill="#fff"
         style="fill:#323273;fill-opacity:1" />
    </g>
    <g
       id="Group_19"
       data-name="Group 19"
       transform="translate(98.631 -28.198)"
       style="fill:#323273;fill-opacity:1">
      <path
         id="Path_20"
         data-name="Path 20"
         d="M0,0A1.743,1.743,0,0,1-1.823,1.936,1.759,1.759,0,0,1-3.668,0V-3.873H-4.789V0A2.812,2.812,0,0,0-1.823,3,2.783,2.783,0,0,0,1.121,0V-3.873H0Z"
         fill="#fff"
         style="fill:#323273;fill-opacity:1" />
    </g>
    <g
       id="Group_20"
       data-name="Group 20"
       transform="translate(203.432 -30.391)"
       style="fill:#323273;fill-opacity:1">
      <path
         id="Path_21"
         data-name="Path 21"
         d="M0,0C0-.474.428-.809,1.289-.809a3.817,3.817,0,0,1,1.924.6l.579-.912A4.693,4.693,0,0,0,1.31-1.831C-.149-1.831-1.2-1.166-1.2.062c0,2.52,4,1.645,4,3.158,0,.518-.551.945-1.316.945A3.354,3.354,0,0,1-.768,3.274l-.62.875A4.408,4.408,0,0,0,1.46,5.188c1.438,0,2.571-.826,2.571-2.026C4.04.765,0,1.49,0,0"
         fill="#fff"
         style="fill:#323273;fill-opacity:1" />
    </g>
    <g
       id="Group_21"
       data-name="Group 21"
       transform="translate(144.361 -30.391)"
       style="fill:#323273;fill-opacity:1">
      <path
         id="Path_22"
         data-name="Path 22"
         d="M0,0C0-.474.428-.809,1.289-.809a3.814,3.814,0,0,1,1.924.6l.579-.912A4.69,4.69,0,0,0,1.31-1.831C-.149-1.831-1.2-1.166-1.2.062c0,2.52,4,1.645,4,3.158,0,.518-.551.945-1.316.945A3.35,3.35,0,0,1-.767,3.274l-.621.875A4.41,4.41,0,0,0,1.46,5.188c1.438,0,2.571-.826,2.571-2.026C4.04.765,0,1.49,0,0"
         fill="#fff"
         style="fill:#323273;fill-opacity:1" />
    </g>
    <g
       id="Group_22"
       data-name="Group 22"
       transform="translate(211.442 -30.391)"
       style="fill:#323273;fill-opacity:1">
      <path
         id="Path_23"
         data-name="Path 23"
         d="M0,0C0-.474.428-.809,1.289-.809a3.817,3.817,0,0,1,1.924.6l.579-.912A4.693,4.693,0,0,0,1.31-1.831C-.149-1.831-1.2-1.166-1.2.062c0,2.52,4,1.645,4,3.158,0,.518-.551.945-1.316.945A3.354,3.354,0,0,1-.768,3.274l-.62.875A4.408,4.408,0,0,0,1.46,5.188c1.438,0,2.571-.826,2.571-2.026C4.04.765,0,1.49,0,0"
         fill="#fff"
         style="fill:#323273;fill-opacity:1" />
    </g>
    <g
       id="Group_23"
       data-name="Group 23"
       transform="translate(107.78 -27.249)"
       style="fill:#323273;fill-opacity:1">
      <path
         id="Path_24"
         data-name="Path 24"
         d="M0,0-4.05-4.822h-.943V1.894h1.121V-2.995L.178,1.894h.943V-4.822H0Z"
         fill="#fff"
         style="fill:#323273;fill-opacity:1" />
    </g>
    <path
       id="Path_25"
       data-name="Path 25"
       d="M112.406-25.354h1.121V-32.07h-1.121Z"
       fill="#fff"
       style="fill:#323273;fill-opacity:1" />
    <path
       id="Path_26"
       data-name="Path 26"
       d="M151.677-25.354H152.8V-32.07h-1.121Z"
       fill="#fff"
       style="fill:#323273;fill-opacity:1" />
    <g
       id="Group_24"
       data-name="Group 24"
       transform="translate(155.676 -31.086)"
       style="fill:#323273;fill-opacity:1">
      <path
         id="Path_27"
         data-name="Path 27"
         d="M0,0H2.287V5.731H3.408V0H5.7V-.985H0Z"
         fill="#fff"
         style="fill:#323273;fill-opacity:1" />
    </g>
    <g
       id="Group_25"
       data-name="Group 25"
       transform="translate(137.331 -28.442)"
       style="fill:#323273;fill-opacity:1">
      <path
         id="Path_28"
         data-name="Path 28"
         d="M0,0H-1.789V-2.644H0c1,0,1.641.427,1.641,1.311C1.641-.382,1.008,0,0,0M2.785-1.378c0-1.455-1.042-2.25-2.74-2.25H-2.909V3.088h1.12V.974h2A7.466,7.466,0,0,1,1.747,3.088H3.12A9.418,9.418,0,0,0,1.411.723a2.119,2.119,0,0,0,1.374-2.1"
         fill="#fff"
         style="fill:#323273;fill-opacity:1" />
    </g>
    <g
       id="Group_26"
       data-name="Group 26"
       transform="translate(166.823 -28.947)"
       style="fill:#323273;fill-opacity:1">
      <path
         id="Path_29"
         data-name="Path 29"
         d="M0,0A29.266,29.266,0,0,1-1.84-3.124h-1.3A41.5,41.5,0,0,0-.561,1.137V3.592H.561V1.137A41.5,41.5,0,0,0,3.142-3.124h-1.3A29.109,29.109,0,0,1,0,0"
         fill="#fff"
         style="fill:#323273;fill-opacity:1" />
    </g>
    <g
       id="Group_27"
       data-name="Group 27"
       transform="translate(119.813 -26.612)"
       style="fill:#323273;fill-opacity:1">
      <path
         id="Path_30"
         data-name="Path 30"
         d="M0,0A32.38,32.38,0,0,1-2.16-5.459H-3.379A35.72,35.72,0,0,0-.614,1.258H.548A35.722,35.722,0,0,0,3.312-5.459H2.16A32.38,32.38,0,0,1,0,0"
         fill="#fff"
         style="fill:#323273;fill-opacity:1" />
    </g>
    <g
       id="Group_28"
       data-name="Group 28"
       transform="translate(126.034 -25.354)"
       style="fill:#323273;fill-opacity:1">
      <path
         id="Path_31"
         data-name="Path 31"
         d="M0,0H5.151V-.985H1.121V-2.9H4.3a3.975,3.975,0,0,0,.458-.94H1.121V-5.731h4.03v-.985H0Z"
         fill="#fff"
         style="fill:#323273;fill-opacity:1" />
    </g>
    <g
       id="Group_29"
       data-name="Group 29"
       transform="translate(194.038 -25.354)"
       style="fill:#323273;fill-opacity:1">
      <path
         id="Path_32"
         data-name="Path 32"
         d="M0,0H5.151V-.985H1.121V-2.9H4.3a3.975,3.975,0,0,0,.458-.94H1.121V-5.731h4.03v-.985H0Z"
         fill="#fff"
         style="fill:#323273;fill-opacity:1" />
    </g>
    <g
       id="Group_30"
       data-name="Group 30"
       transform="translate(179.133 -32.071)"
       style="fill:#323273;fill-opacity:1">
      <path
         id="Path_33"
         data-name="Path 33"
         d="M0,0H-2.955V6.716h1.121V.985H-.045c1,0,1.641.448,1.641,1.332,0,.952-.633,1.354-1.641,1.354H-1.06l-.431.975H-.068c1.675,0,2.808-.829,2.808-2.374C2.74.817,1.7,0,0,0"
         fill="#fff"
         style="fill:#323273;fill-opacity:1" />
    </g>
  </g>
  <g
     id="Group_31-1"
     data-name="Group 31"
     transform="matrix(0.97998815,0,0,0.92486078,-37.253347,61.161732)"
     clip-path="url(#clip-path-9)"
     style="fill:#323273;fill-opacity:1">
    <g
       id="Group_9-3"
       data-name="Group 9"
       transform="translate(73.06,-38.03)"
       style="fill:#323273;fill-opacity:1" />
    <g
       id="Group_10-7"
       data-name="Group 10"
       transform="translate(73.209,-40.316)"
       style="fill:#323273;fill-opacity:1" />
    <g
       id="Group_11-8"
       data-name="Group 11"
       transform="translate(80.91,-40.975)"
       style="fill:#323273;fill-opacity:1" />
    <g
       id="Group_12"
       data-name="Group 12"
       transform="translate(130.886,-54.676)"
       style="fill:#323273;fill-opacity:1">
      <path
         id="Path_13"
         data-name="Path 13"
         d="M 0,0 H -2.947 L -7.7,6.653 -12.448,0 H -15.4 l 5.856,7.905 -5.914,7.984 h 2.947 L -7.7,9.1 -2.891,15.886 H 0.058 L -5.857,7.905 Z"
         fill="#ffffff"
         style="fill:#323273;fill-opacity:1" />
    </g>
    <g
       id="Group_13"
       data-name="Group 13"
       transform="translate(183.124,-52.346)"
       style="fill:#323273;fill-opacity:1">
      <path
         id="Path_14"
         data-name="Path 14"
         d="m 0,0 h 4.249 c 2.331,0 3.814,1.06 3.814,3.151 0,2.119 -1.457,3.1 -3.655,3.1 H 0 Z m 7.561,7.928 a 5.019,5.019 0 0 0 3.2,-4.882 C 10.764,-0.4 8.328,-2.33 4.328,-2.33 h -6.95 V 13.559 H 0 V 8.528 h 4.763 a 17.632,17.632 0 0 1 3.673,5.031 h 3.2 A 22.287,22.287 0 0 0 7.561,7.928"
         fill="#ffffff"
         style="fill:#323273;fill-opacity:1" />
    </g>
    <g
       id="Group_14"
       data-name="Group 14"
       transform="translate(208.45,-41.117)"
       style="fill:#323273;fill-opacity:1">
      <path
         id="Path_15"
         data-name="Path 15"
         d="M 0,0 H -3.124 V -11.229 H 0 c 3.39,0 5.959,2.013 5.959,5.614 C 5.959,-2.014 3.39,0 0,0 M 0.185,-13.559 H -5.747 V 2.33 h 5.932 c 5.138,0 8.448,-3.2 8.448,-7.945 0,-4.745 -3.31,-7.944 -8.448,-7.944"
         fill="#ffffff"
         style="fill:#323273;fill-opacity:1" />
    </g>
    <g
       id="Group_15"
       data-name="Group 15"
       transform="translate(100.715,-40.833)"
       style="fill:#323273;fill-opacity:1">
      <path
         id="Path_16"
         data-name="Path 16"
         d="M 0,0 A 6,6 0 0 1 -6,-5.914 6,6 0 0 1 0,-11.828 6,6 0 0 1 6,-5.914 6,6 0 0 1 0,0 M 0,-14.226 A 8.462,8.462 0 0 0 -8.485,-5.914 8.462,8.462 0 0 0 0,2.4 8.462,8.462 0 0 0 8.485,-5.914 8.462,8.462 0 0 0 0,-14.226"
         fill="#ffffff"
         style="fill:#323273;fill-opacity:1" />
    </g>
    <g
       id="Group_16"
       data-name="Group 16"
       transform="translate(164.3,-40.833)"
       style="fill:#323273;fill-opacity:1">
      <path
         id="Path_17"
         data-name="Path 17"
         d="M 0,0 A 6,6 0 0 1 -6,-5.914 6,6 0 0 1 0,-11.828 6,6 0 0 1 6,-5.914 6,6 0 0 1 0,0 M 0,-14.226 A 8.462,8.462 0 0 0 -8.485,-5.914 8.462,8.462 0 0 0 0,2.4 8.462,8.462 0 0 0 8.485,-5.914 8.462,8.462 0 0 0 0,-14.226"
         fill="#ffffff"
         style="fill:#323273;fill-opacity:1" />
    </g>
    <g
       id="Group_17"
       data-name="Group 17"
       transform="translate(137.996,-38.787)"
       style="fill:#323273;fill-opacity:1">
      <path
         id="Path_18"
         data-name="Path 18"
         d="m 0,0 h 2.622 v -5.722 h 7.651 A 9.409,9.409 0 0 0 11.391,-8 H 2.622 v -5.559 h 9.708 v -2.33 H 0 Z"
         fill="#ffffff"
         style="fill:#323273;fill-opacity:1" />
    </g>
    <g
       id="Group_18-8"
       data-name="Group 18"
       transform="translate(187.884,-28.442)"
       style="fill:#323273;fill-opacity:1" />
    <g
       id="Group_19-3"
       data-name="Group 19"
       transform="translate(98.631,-28.198)"
       style="fill:#323273;fill-opacity:1" />
    <g
       id="Group_20-8"
       data-name="Group 20"
       transform="translate(203.432,-30.391)"
       style="fill:#323273;fill-opacity:1" />
    <g
       id="Group_21-1"
       data-name="Group 21"
       transform="translate(144.361,-30.391)"
       style="fill:#323273;fill-opacity:1" />
    <g
       id="Group_22-5"
       data-name="Group 22"
       transform="translate(211.442,-30.391)"
       style="fill:#323273;fill-opacity:1" />
    <g
       id="Group_23-3"
       data-name="Group 23"
       transform="translate(107.78,-27.249)"
       style="fill:#323273;fill-opacity:1" />
    <g
       id="Group_24-5"
       data-name="Group 24"
       transform="translate(155.676,-31.086)"
       style="fill:#323273;fill-opacity:1" />
    <g
       id="Group_25-4"
       data-name="Group 25"
       transform="translate(137.331,-28.442)"
       style="fill:#323273;fill-opacity:1" />
    <g
       id="Group_26-3"
       data-name="Group 26"
       transform="translate(166.823,-28.947)"
       style="fill:#323273;fill-opacity:1" />
    <g
       id="Group_27-6"
       data-name="Group 27"
       transform="translate(119.813,-26.612)"
       style="fill:#323273;fill-opacity:1" />
    <g
       id="Group_28-5"
       data-name="Group 28"
       transform="translate(126.034,-25.354)"
       style="fill:#323273;fill-opacity:1" />
    <g
       id="Group_29-9"
       data-name="Group 29"
       transform="translate(194.038,-25.354)"
       style="fill:#323273;fill-opacity:1" />
    <g
       id="Group_30-5"
       data-name="Group 30"
       transform="translate(179.133,-32.071)"
       style="fill:#323273;fill-opacity:1" />
  </g>
</svg>
